<svg xmlns="http://www.w3.org/2000/svg" xmlns:xlink="http://www.w3.org/1999/xlink" id="Calque_1" x="0px" y="0px" viewBox="0 0 755.23 547.21" style="enable-background:new 0 0 755.23 547.21;" xml:space="preserve">
<style type="text/css">
	.st0{fill:#F4E9E3;}
</style>
<g>
	<path class="st0" d="M93.46,439.23c0.01-0.01,0.01-0.02,0.02-0.03c0-0.01,0.01-0.01,0.01-0.02   C93.47,439.2,93.47,439.21,93.46,439.23z"></path>
	<path class="st0" d="M299.42,480.27c0.03,0.02,0.05,0.04,0.08,0.05c0.14,0.08,0.28,0.17,0.41,0.25   C299.75,480.48,299.58,480.38,299.42,480.27z"></path>
	<path class="st0" d="M139.77,371.75c-0.1-0.04-0.19-0.09-0.29-0.13c-0.07-0.03-0.13-0.06-0.2-0.09   C139.44,371.6,139.61,371.67,139.77,371.75z"></path>
	<path class="st0" d="M585.29,472.33c-0.05-0.56-0.11-1.12-0.17-1.67c-0.07-0.65-0.22-1.29-0.36-1.86   c-0.26-1.09-0.58-2.26-1.03-3.67c-0.45-1.41-0.88-2.52-1.35-3.52c-0.41-0.87-1.66-1.17-2.78-0.67c-0.01,0-0.01,0.01-0.02,0.01   c-0.53,0.24-0.97,0.64-1.24,1.14l-0.16,0.43c-0.08,0.34-0.06,0.66,0.06,0.91c0.28,1.1,0.62,2.17,0.94,3.18   c0.3,0.93,0.57,1.87,0.84,2.79l0.22,0.97c0.06,0.28,0.11,0.56,0.15,0.84l0.03,0.17c0.08,0.51,0.12,1.03,0.16,1.55l0.04,0.48   c0.03,0.36,0.04,0.72,0.05,1.08l0.01,0.36c0.01,0.25,0.02,0.51,0.01,0.77l-0.04,1.21c-0.01,0.31-0.04,0.62-0.08,0.94l-0.01,0.05   l0,0l-0.08,0.54c-0.06,0.46-0.13,0.93-0.21,1.39l-0.12,0.66c-0.09,0.5-0.18,1-0.3,1.51l-0.6,2.41c-0.07,0.26-0.16,0.53-0.25,0.8   l-0.49,1.52l-0.6,1.48c-0.16,0.39-0.35,0.77-0.54,1.15l-0.24,0.48c-0.18,0.37-0.39,0.73-0.6,1.09l-0.19,0.33   c-0.32,0.55-0.64,1.1-0.99,1.69c-1.16,1.96-2.51,4.06-4.24,6.61l-0.28,0.38c-0.52,0.71-1.03,1.42-1.56,2.12l-1.25,1.64   c-0.13,0.17-0.26,0.33-0.39,0.5l-0.4,0.51c-0.15,0.19-0.29,0.38-0.46,0.57c-0.43,0.48-0.85,0.95-1.31,1.41   c-0.44,0.44-0.89,0.88-1.35,1.32c-0.89,0.85-1.79,1.69-2.7,2.53l-0.66,0.6c-1.03,0.92-2.07,1.84-3.13,2.74   c-1.47,1.25-2.94,2.49-4.42,3.73c-1.03,0.86-2.25,1.88-3.56,2.9l-2.34,1.83c-0.82,0.64-1.71,1.25-2.57,1.85l-0.2,0.14   c-1.15,0.8-2.37,1.52-3.29,2.06c-1.25,0.7-2.52,1.37-3.77,1.98c-0.54,0.26-1.09,0.52-1.64,0.77l-0.49,0.22   c-0.39,0.18-0.79,0.36-1.18,0.52l-4.15,1.72c-1.66,0.69-3.38,1.34-5.04,1.96l-1.52,0.58c-1.5,0.57-3.01,1.12-4.52,1.66l-1.93,0.7   c-0.62,0.23-1.24,0.43-1.86,0.63l-4.03,1.34l-5.8,1.57c-0.19,0.05-0.39,0.09-0.59,0.14l-5.3,1.18c-0.2,0.04-0.39,0.07-0.59,0.11   l-5.4,0.93c-0.19,0.03-0.39,0.05-0.58,0.07l-5.21,0.6c-3.29,0.18-6.58,0.35-9.86,0.51c-1.41,0.07-2.82,0.13-4.23,0.2l-4.1,0.2   c-0.41,0.02-0.82,0.05-1.22,0.05l-5.93,0.09c-1.06,0.02-2.14-0.02-3.18-0.05l-3.9-0.1c-0.32-0.01-0.63-0.03-0.94-0.06l-5.84-0.43   l-6.41-0.91c-0.37-0.05-0.73-0.1-1.09-0.17l-4.56-0.96c-1.16-0.24-2.33-0.48-3.47-0.76l-6.61-1.59c-1.16-0.28-2.31-0.58-3.45-0.89   l-3.78-0.99c-0.14-0.04-0.27-0.08-0.41-0.13l-3.11-0.98c-1.16-0.36-2.35-0.73-3.49-1.14l-5.31-1.93l-6.02-2.27   c-0.76-0.29-1.53-0.56-2.3-0.83l-3.96-1.41l-5.38-2.05c-0.38-0.15-0.75-0.3-1.12-0.46l-3.97-1.66c-1.24-0.52-2.47-1.07-3.69-1.62   l-0.93-0.41c-1.51-0.68-3.01-1.36-4.51-2.06l-2.83-1.32c-0.49-0.23-0.96-0.47-1.43-0.72l-5.4-2.75c-3.09-1.57-6.3-3.14-9.83-4.79   c-1.64-0.77-3.28-1.54-4.92-2.3c-1-0.47-1.97-0.96-2.95-1.45l-1.35-0.67c-1.24-0.61-2.46-1.25-3.68-1.89l-0.68-0.36   c-1.71-0.89-3.41-1.78-5.12-2.66l-0.53-0.28c-0.46-0.24-0.93-0.49-1.4-0.71l-3.17-1.51c-0.76-0.36-1.54-0.71-2.31-1.06   c-0.65-0.29-1.31-0.58-1.95-0.89l-1.21-0.57c-1.15-0.54-2.31-1.08-3.45-1.63c-1.21-0.58-2.43-1.16-3.65-1.73l-1.11-0.82   c-3.44-2.11-9.69-5.88-11.62-7.04c-2.25-1.35-4.56-3.32-6.8-4.7c-3.58-2.2-7.17-4.37-10.77-6.53c-0.76-0.5-1.52-1.01-2.28-1.52   c-0.33-0.22-0.66-0.44-0.98-0.65c-0.18-0.12-0.35-0.25-0.52-0.38c-0.88-0.7-1.84-1.32-2.69-2.05c-0.83-0.71-1.67-1.42-2.5-2.13   c-0.16-0.14-0.31-0.29-0.47-0.43c-0.12-0.28-0.25-0.55-0.38-0.82c-0.31-0.63-0.68-1.24-1.04-1.84c-0.59-0.97-1.24-1.9-1.84-2.86   c-0.21-0.34-0.42-0.68-0.63-1.03c-0.01-0.03-0.01-0.06-0.02-0.09c-0.1-0.44-0.18-0.89-0.26-1.33c-0.14-0.95-0.25-1.9-0.2-2.86   c0.16-1.04,0.39-2.07,0.55-3.11c0.18-1.14,0.32-2.28,0.43-3.43c0.13-1.12,0.29-2.23,0.49-3.34c0.21-1.16,0.51-2.3,0.79-3.44   c0.3-1.18,0.69-2.33,1.05-3.5c0.16-0.53,0.3-1.06,0.47-1.59c0.15-0.47,0.32-0.94,0.49-1.4c0.54-1.34,1.15-2.68,1.95-3.89   c0.26-0.34,0.53-0.68,0.82-1c0.3-0.34,0.64-0.64,0.98-0.94c1.07-0.86,2.22-1.59,3.41-2.28c0.68-0.39,1.37-0.77,2.02-1.22   c1.34-0.92,2.57-2.07,3.37-3.5c0.09-0.18,0.17-0.37,0.24-0.56c0.13-0.34,0.24-0.66,0.33-1.01c0.16-0.61,0.2-1.26,0.21-1.89   c0.01-0.38,0-0.76-0.01-1.14c-0.03-0.75-0.12-1.5-0.23-2.24c-0.24-1.57-0.55-3.12-0.82-4.68c-0.13-0.86-0.26-1.72-0.39-2.58   c-0.15-1.02-0.26-2.05-0.19-3.08c0.1-0.74,0.24-1.46,0.41-2.19c0.2-0.84,0.43-1.66,0.65-2.5c0.45-1.65,0.81-3.32,1.09-5   c0.3-1.77,0.55-3.55,0.63-5.35c0.08-1.73,0.19-3.49,0.04-5.22c-0.15-1.86-0.45-3.76-1.13-5.51c-0.7-1.81-1.69-3.46-2.72-5.1   c-0.23-0.38-0.48-0.74-0.73-1.11c-0.25-0.37-0.54-0.72-0.8-1.09c-0.53-0.74-1.08-1.46-1.62-2.2c-1.07-1.45-2.17-2.87-3.39-4.21   c-0.55-0.6-1.08-1.2-1.63-1.8c-0.52-0.58-1.07-1.14-1.59-1.72c-1.06-1.16-2.1-2.35-3.12-3.55c-1.47-1.77-2.9-3.57-4.37-5.34   c0.04,0.04,0.07,0.09,0.11,0.13c-0.04-0.05-0.09-0.1-0.13-0.16c-0.05-0.06-0.11-0.13-0.16-0.19c0.02,0.03,0.04,0.05,0.06,0.08   c-0.05-0.06-0.1-0.12-0.15-0.18c0.04,0.04,0.07,0.08,0.11,0.13c-1.15-1.37-2.31-2.73-3.59-3.99c-0.65-0.64-1.34-1.23-2.01-1.83   c-0.67-0.6-1.35-1.18-2.04-1.76c-1.34-1.14-2.71-2.24-4.05-3.37c-1.32-1.11-2.65-2.2-3.85-3.45c-0.32-0.33-0.63-0.68-0.93-1.03   c-0.46-0.56-0.92-1.12-1.34-1.71c-0.49-0.7-0.96-1.42-1.43-2.14c-0.95-1.47-1.87-2.95-2.84-4.41c-0.5-0.74-1.03-1.45-1.59-2.14   c-0.58-0.72-1.19-1.44-1.88-2.06c-0.65-0.58-1.3-1.16-1.98-1.7c-0.7-0.56-1.42-1.11-2.18-1.57c-0.55-0.33-1.12-0.63-1.68-0.95   c-0.53-0.31-1.05-0.63-1.56-0.98c-0.43-0.31-0.85-0.63-1.27-0.95c-0.43-0.33-0.86-0.64-1.3-0.97c-0.98-0.73-1.96-1.46-2.97-2.15   c-0.9-0.62-1.81-1.24-2.75-1.81c-0.97-0.59-1.95-1.17-2.89-1.82c-0.67-0.48-1.32-0.99-1.97-1.49c-0.44-0.34-0.94-0.61-1.35-0.99   c-0.32-0.3-1.37-0.92-1.92-1.15c-0.26-0.11-0.52-0.22-0.79-0.32c-0.41-0.15-0.85-0.15-1.27-0.03c-0.03,0.01-0.06,0.02-0.1,0.03   c-0.35,0.13-0.62,0.46-0.73,0.81c-0.11,0.37-0.12,0.75-0.13,1.14c-0.01,0.47,0.03,0.95,0.04,1.42c0.02,0.86,0.07,1.72,0.14,2.58   c0.07,0.84,0.1,1.67,0.22,2.5c0.26,1.72,0.81,3.4,1.29,5.08c0.97,3.41,2,6.8,3.12,10.16c0.58,1.72,1.19,3.43,1.79,5.15   c0.58,1.67,1.02,3.4,1.52,5.1c1,3.42,2.02,6.84,2.95,10.29c0.46,1.69,0.85,3.41,1.37,5.08c0.27,0.88,0.57,1.74,0.91,2.59   c0.36,0.92,0.73,1.85,1.16,2.74c0.19,0.41,0.37,0.83,0.58,1.22c0.24,0.46,0.49,0.92,0.74,1.38c0.41,0.75,0.83,1.49,1.29,2.21   c0.47,0.75,0.97,1.48,1.5,2.19c0.51,0.68,1.04,1.34,1.57,2c0.55,0.68,1.12,1.35,1.66,2.04c0.51,0.65,0.99,1.34,1.48,2.02   c1.01,1.41,1.96,2.86,2.79,4.38c0.62,1.14,1.2,2.29,1.76,3.46c0.35,0.77,0.69,1.55,1.02,2.33c0.33,0.79,0.63,1.6,0.94,2.41   c0.67,1.74,1.19,3.54,1.74,5.31c1.04,3.34,2.03,6.69,2.89,10.08c0.26,1.02,0.51,2.05,0.75,3.08c0.18,0.78,0.32,1.58,0.46,2.37   c0.16,1.02,0.33,2.05,0.5,3.07c0.28,1.73,0.51,3.45,0.67,5.19c0.04,0.42,0.06,0.84,0.09,1.26c0.04,0.46,0.1,0.93,0.15,1.39   c0.09,0.84,0.22,1.69,0.33,2.53c0.23,1.78,0.5,3.55,0.72,5.33c0.11,0.89,0.2,1.79,0.29,2.69c0.09,0.87,0.21,1.74,0.33,2.61   c0.14,0.97,0.32,1.94,0.48,2.91c0.15,0.83,0.32,1.66,0.57,2.47c0.19,0.61,0.41,1.2,0.61,1.8c0.3,0.84,0.66,1.67,1,2.49   c0.36,0.86,0.74,1.71,1.15,2.55c0.8,1.63,1.61,3.26,2.51,4.84c0.26,0.45,0.52,0.91,0.77,1.36c0.24,0.42,0.53,0.81,0.8,1.21   c0.46,0.7,0.95,1.37,1.46,2.04c0.69,0.91,1.31,1.87,1.94,2.82c0.04,0.06,0.08,0.12,0.11,0.18c-0.93-0.7-1.86-1.42-2.83-2.08   c-0.72-0.49-1.45-0.95-2.19-1.41c-0.83-0.51-1.68-0.98-2.53-1.46c-1.52-0.86-3.07-1.68-4.59-2.56c-1.66-0.95-3.32-1.92-4.97-2.9   c-1.93-1.21-3.84-2.46-5.79-3.64c-0.99-0.6-1.97-1.21-2.98-1.77c-1.04-0.58-2.09-1.15-3.14-1.72c-2.15-1.16-5.62-3.12-7.74-4.33   c-0.35-0.2-0.7-0.4-1.05-0.61c-1.06-0.62-2.12-1.25-3.19-1.84c-0.63-0.35-1.25-0.7-1.88-1.05c-0.02-0.06-0.04-0.12-0.07-0.18   c-0.01-0.02-0.02-0.05-0.03-0.07c-0.16-0.42-0.34-0.84-0.47-1.28c-0.19-0.61-0.38-1.22-0.6-1.82c-0.42-1.15-0.92-2.27-1.38-3.41   c-0.46-1.24-0.94-2.46-1.52-3.64c-0.53-1.07-1.02-2.16-1.52-3.25c-1.06-2.25-2.07-4.53-3.02-6.83c-0.36-0.93-0.69-1.88-1.01-2.82   c-0.36-1.05-0.65-2.11-0.92-3.19c-0.27-1.07-0.46-2.16-0.66-3.25c-0.19-1.04-0.34-2.08-0.47-3.13c-0.07-0.71-0.12-1.42-0.13-2.13   c-0.01-0.91-0.03-1.81-0.03-2.72c-0.02-1.77,0.07-3.55-0.09-5.32c-0.1-1.08-0.22-2.16-0.45-3.22c-0.19-0.9-0.43-1.79-0.68-2.68   c-0.49-1.75-1.03-3.48-1.63-5.19c-0.3-0.84-0.65-1.67-0.96-2.51c-0.32-0.85-0.61-1.72-0.91-2.58c-0.61-1.71-1.17-3.43-1.79-5.14   c-0.66-1.84-1.44-3.64-2.21-5.44c-0.34-0.8-0.72-1.58-1.08-2.37c-0.39-0.86-0.79-1.7-1.24-2.53c-0.81-1.52-1.68-3-2.69-4.4   c-1.18-1.64-2.4-3.24-3.75-4.75c-0.62-0.69-1.3-1.33-2.01-1.93c-0.82-0.7-1.73-1.24-2.68-1.74c-0.93-0.49-1.87-0.92-2.84-1.32   c-0.77-0.32-1.58-0.54-2.4-0.7c-0.97-0.19-1.96-0.33-2.95-0.38c-0.89-0.05-1.78,0.01-2.67,0.1c-1.87,0.19-3.74,0.48-5.59,0.8   c-1.75,0.3-3.51,0.48-5.26,0.76c-1.81,0.29-3.63,0.53-5.45,0.81c-1.29,0.2-2.58,0.42-3.85,0.68c-0.63,0.13-1.25,0.28-1.88,0.44   c-0.59,0.15-1.18,0.31-1.74,0.52c-1.34,0.49-2.66,1.03-3.87,1.79c-0.45,0.28-0.88,0.61-1.34,0.89c-0.27,0.16-0.55,0.32-0.83,0.48   c-0.21,0.12-0.44,0.21-0.66,0.31c-0.41,0.14-0.82,0.27-1.24,0.37c-0.48,0.11-0.96,0.2-1.45,0.27c-0.76,0.07-1.53,0.12-2.3,0.09   c-0.85-0.03-1.68-0.12-2.51-0.24c-0.82-0.14-1.65-0.27-2.45-0.49c-0.76-0.21-1.52-0.43-2.27-0.68c-1.55-0.53-3.1-1.06-4.67-1.54   c-1.66-0.51-3.31-1.08-5.01-1.47c-1.8-0.41-3.65-0.7-5.5-0.76c-0.86-0.03-1.73-0.06-2.59-0.01c-1,0.06-2,0.15-3,0.29   c-0.94,0.14-1.88,0.28-2.81,0.47c-0.92,0.18-1.84,0.36-2.75,0.55c-0.48,0.1-0.95,0.21-1.43,0.32c-1.28,0.31-2.55,0.68-3.82,1.03   c-1.77,0.48-3.53,0.99-5.27,1.56c-1.89,0.62-3.74,1.31-5.57,2.09c-1.61,0.69-3.2,1.41-4.81,2.11c-3.33,1.43-6.73,2.71-10.07,4.14   c-3.44,1.47-6.81,3.1-10.25,4.58c-1.7,0.73-3.39,1.49-5.02,2.38c-0.74,0.4-1.45,0.87-2.16,1.32c-0.79,0.49-1.58,0.98-2.37,1.47   c-1.1,0.68-2.18,1.38-3.3,2.02c-1.14,0.65-2.35,1.16-3.57,1.66c-0.81,0.31-1.63,0.62-2.44,0.92c-0.88,0.32-1.76,0.62-2.65,0.91   c-1.73,0.58-3.48,1.08-5.22,1.65c-0.82,0.26-1.62,0.58-2.42,0.89c-0.85,0.33-1.72,0.7-2.53,1.12c-0.8,0.41-1.59,0.86-2.35,1.34   c-0.32,0.2-0.65,0.4-0.97,0.62c-0.43,0.29-0.83,0.63-1.22,0.96c-0.59,0.5-1.24,1.09-1.26,1.91c0,0.25,0.09,0.46,0.2,0.67   c0.13,0.23,0.33,0.36,0.53,0.51c0.09,0.04,0.17,0.08,0.26,0.11c0.13,0.06,0.26,0.11,0.39,0.13c0.29,0.07,0.6,0.1,0.9,0.12   c0.44,0.04,0.9,0.01,1.34,0.01c0.45-0.01,0.91,0,1.36,0c0.9,0.01,1.8,0,2.7,0.05c0.83,0.04,1.65,0.14,2.47,0.27   c0.56,0.11,1.12,0.23,1.67,0.38c0.58,0.15,1.14,0.36,1.7,0.58c1.33,0.63,2.57,1.45,3.75,2.33c0.43,0.35,0.83,0.72,1.24,1.09   c0.8,0.71,1.73,1.2,2.72,1.59c1.44,0.55,2.93,0.84,4.45,1.04c0.71,0.1,1.45,0.12,2.16,0.11c0.78-0.01,1.55-0.04,2.33-0.09   c1.46-0.09,2.91-0.27,4.36-0.44c0.99-0.09,1.97-0.16,2.97-0.13c1.07,0.03,2.13,0.11,3.19,0.24c2.04,0.23,4.1,0.39,6.13,0.69   c1.47,0.26,2.93,0.52,4.4,0.76c1.57,0.26,3.14,0.47,4.7,0.71c1.28,0.24,2.56,0.46,3.85,0.64c1.12,0.15,2.23,0.3,3.35,0.46   c0.32,0.05,0.65,0.1,0.97,0.15c1.73,0.3,3.46,0.68,5.2,0.85c1.74,0.18,3.49,0.28,5.23,0.17c1.92-0.13,3.84-0.38,5.74-0.71   c1.78-0.31,3.56-0.6,5.35-0.82c0.68-0.04,1.35-0.08,2.03-0.09c0.71-0.02,1.43,0.04,2.14,0.07c1.33,0.04,2.66,0.17,3.97,0.35   c1.19,0.21,2.37,0.45,3.55,0.67c1.24,0.24,2.47,0.47,3.7,0.77c1.23,0.3,2.44,0.74,3.62,1.2c1.13,0.44,2.25,0.91,3.36,1.39   c1.57,0.73,3.13,1.49,4.71,2.21c0.92,0.42,1.84,0.82,2.8,1.11c0.81,0.24,1.64,0.42,2.48,0.56c1.88,0.31,3.77,0.53,5.65,0.79   c1.83,0.26,3.68,0.44,5.53,0.52c1.5,0.07,2.98,0.07,4.47-0.11c0.72-0.09,1.44-0.17,2.14-0.31c0.77-0.16,1.53-0.34,2.29-0.53   c1.44-0.37,2.87-0.75,4.31-1.11c0.68-0.18,1.37-0.36,2.06-0.5c0.67-0.13,1.34-0.24,2.02-0.32c0.73-0.04,1.46-0.07,2.19-0.05   c0.76,0.02,1.52,0.09,2.27,0.19c0.49,0.08,0.97,0.17,1.44,0.31c0.62,0.19,1.22,0.43,1.82,0.68c0.23,0.1,0.46,0.2,0.69,0.31   c0.71,0.32,1.41,0.66,2.04,1.12c0.56,0.49,1.09,1.01,1.63,1.52c0.63,0.6,1.26,1.22,1.87,1.85c0.56,0.58,1.16,1.14,1.75,1.69   c0.7,0.65,1.48,1.21,2.26,1.75c0.65,0.45,1.35,0.82,2.03,1.21c0.72,0.42,1.45,0.83,2.17,1.26c1.46,0.87,2.92,1.78,4.25,2.84   c0.06,0.05,0.11,0.09,0.17,0.14c0.92,0.74,1.81,1.52,2.68,2.32c0.86,0.79,1.67,1.64,2.5,2.48c0.77,0.78,1.53,1.57,2.3,2.35   c0.45,0.45,0.89,0.92,1.32,1.39c0.38,0.41,0.72,0.85,1.06,1.29c0.67,0.91,1.27,1.86,1.88,2.82c0.24,0.38,0.48,0.76,0.72,1.14   c-1.28-0.65-2.55-1.3-3.83-1.94c-2.06-1.02-4.12-2.02-6.22-2.96c-2.14-0.95-4.32-1.82-6.49-2.69c-2.24-0.9-4.47-1.83-6.71-2.73   c-2.09-0.85-4.22-1.6-6.36-2.3c-2.04-0.67-4.12-1.22-6.18-1.84c-0.9-0.27-1.82-0.51-2.72-0.77c-1.14-0.32-2.27-0.64-3.42-0.93   c-1.01-0.25-2.03-0.47-3.05-0.66c-1.05-0.2-2.1-0.42-3.16-0.59c-0.96-0.16-1.93-0.26-2.89-0.36c-1.09-0.12-2.18-0.24-3.27-0.34   c-2.02-0.18-4.04-0.29-6.06-0.44c-2.05-0.16-4.09-0.29-6.15-0.24c-2.69,0.06-5.36,0.44-8.03,0.75c-1.67,0.2-3.33,0.44-4.99,0.67   c-0.77,0.11-2.04,0.23-2.81,0.28c-0.47,0.03-0.94,0.06-1.41,0.08c-1.37,0.06-2.74,0.06-4.1,0.13c-1.4,0.07-2.8,0.16-4.2,0.33   c-1.27,0.15-2.54,0.22-3.81,0.29c-0.96,0.06-1.92,0.05-2.87,0.03c0.02,0,0.04,0,0.06,0c-0.61-0.02-1.23-0.01-1.84,0.01   c-0.31,0.01-0.63,0.06-0.94,0.09c-0.38,0.03-0.74,0.14-1.11,0.23c-0.82,0.18-1.65,0.32-2.46,0.53c-0.61,0.16-1.19,0.38-1.78,0.61   c-0.01,0-0.01,0-0.02,0.01c-1.13,0.46-2.33,0.71-3.55,0.71c-2.79,0.02-5.59,0.08-8.38,0.11c-1.98,0.03-3.96,0.02-5.93,0.17   c-0.88,0.06-1.74,0.22-2.61,0.38c-1.3,0.24-2.61,0.43-3.89,0.73c-0.52,0.12-1.04,0.23-1.55,0.37c-0.61,0.18-1.23,0.35-1.84,0.53   c-0.57,0.16-1.13,0.38-1.69,0.57c-0.57,0.19-1.14,0.4-1.7,0.61c-0.16,0.06-0.33,0.12-0.49,0.18c-0.81,0.31-1.6,0.64-2.4,0.98   c-1.01,0.43-2.01,0.88-2.99,1.39c-1.13,0.59-2.22,1.23-3.33,1.87c-1.04,0.6-2.09,1.19-3.14,1.77c-1.84,0.99-3.66,2-5.48,3.02   c-0.97,0.52-1.95,1.03-2.91,1.56c-1.05,0.57-2.07,1.16-3.1,1.77c-1.82,1.08-3.56,2.28-5.4,3.33c-1.87,0.98-3.79,1.88-5.79,2.56   c-2.18,0.75-4.36,1.46-6.53,2.23c-0.96,0.34-1.91,0.72-2.84,1.14c-0.9,0.4-1.77,0.85-2.63,1.32c-0.61,0.33-1.21,0.67-1.81,1.03   c-0.05,0.02-0.09,0.03-0.14,0.05c-1.75,0.67-3.37,1.58-4.87,2.72c-0.83,0.63-1.58,1.37-2.29,2.14c-0.21,0.23-0.43,0.46-0.64,0.69   c-0.34,0.28-0.68,0.56-1.01,0.85c-0.89,0.77-1.72,1.62-2.53,2.46c-0.81,0.84-1.61,1.7-2.39,2.58c-0.62,0.69-1.18,1.43-1.74,2.18   c-0.64,0.86-1.19,1.77-1.73,2.69c-0.41,0.71-0.76,1.46-1.13,2.2c-0.15,0.3-0.29,0.6-0.43,0.91c-0.23,0.39-0.45,0.77-0.66,1.17   c-0.87,1.62-1.64,3.29-2.51,4.91c-0.8,1.49-1.59,2.99-2.46,4.44c-0.31,0.48-0.62,0.96-0.94,1.44c-0.49,0.73-1.02,1.42-1.55,2.12   c-0.53,0.69-1.07,1.37-1.64,2.03c-0.52,0.61-1.07,1.19-1.62,1.78c-0.5,0.54-1.01,1.07-1.46,1.65c-0.43,0.56-0.8,1.17-1.14,1.79   c-0.28,0.53-0.52,1.15-0.54,1.76c-0.01,0.15-0.01,0.29-0.02,0.44c0.02,0.24,0.07,0.46,0.13,0.69c0.09,0.36,0.39,0.69,0.69,0.88   c0.31,0.19,0.6,0.29,0.95,0.39c0.19,0.03,0.38,0.05,0.57,0.05c0.26,0.01,0.51,0.01,0.77,0.01c0.91,0,1.8-0.16,2.69-0.36   c0.59-0.13,1.18-0.29,1.76-0.47c2.72-0.83,5.37-1.76,7.98-2.84c0.76-0.31,1.51-0.64,2.27-0.93c0.75-0.29,1.52-0.52,2.3-0.72   c1.72-0.36,3.46-0.48,5.21-0.54c1.53-0.05,3.07-0.04,4.6,0.03c0.65,0.03,1.31,0.06,1.96,0.08c-0.02,0-0.04,0-0.06,0   c1.52,0.06,3.03,0.14,4.54,0.29c0.98,0.09,1.95,0.21,2.92,0.38c0.8,0.14,2.08,0.49,2.85,0.73c0.54,0.17,1.07,0.34,1.6,0.52   c0.82,0.28,1.63,0.6,2.43,0.94c0.77,0.33,1.54,0.69,2.31,1.01c0.75,0.31,1.55,0.59,2.35,0.74c1.86,0.33,3.75-0.03,5.54-0.53   c0.81-0.22,1.6-0.5,2.38-0.82c1.14-0.47,2.18-1.18,3.23-1.81c1.19-0.64,2.39-1.26,3.6-1.87c1.2-0.6,2.41-1.21,3.57-1.9   c0.51-0.3,1.01-0.63,1.5-0.97c0.5-0.36,0.97-0.77,1.44-1.17c0.9-0.78,1.69-1.68,2.43-2.61c0.3-0.38,0.74-1.04,0.98-1.46   c0.19-0.34,0.39-0.68,0.58-1.01c0.35-0.61,0.68-1.23,1.02-1.85c0.59-1.07,1.14-2.16,1.71-3.24c1.14-2.15,2.32-4.28,3.54-6.39   c0.52-0.84,1.09-1.65,1.63-2.48c0.53-0.81,1.06-1.63,1.6-2.44c1.23-1.81,2.42-3.64,3.52-5.54c1.08-1.86,2.16-3.73,3.24-5.59   c0.52-0.89,0.98-1.81,1.48-2.72c0.42-0.76,0.87-1.52,1.33-2.26c0.46-0.73,0.94-1.45,1.42-2.16c0.53-0.79,1.1-1.54,1.67-2.29   c1.2-1.59,2.53-3.08,3.96-4.47c0.61-0.56,1.21-1.11,1.85-1.64c0.57-0.47,1.16-0.91,1.76-1.34c0.67-0.48,1.36-0.94,2.04-1.41   c0.66-0.45,1.32-0.91,1.98-1.35c0.6-0.4,1.23-0.77,1.84-1.15s1.22-0.77,1.84-1.14c1.26-0.73,2.5-1.47,3.77-2.19   c3.68-2.09,4.23-4.1,4.95-4.49c1.34-0.72,1.86-0.34,2.81-0.34c1.37,0,2.75-0.14,4.12-0.26c1.49-0.13,2.98-0.23,4.48-0.23   c1.45,0,2.9-0.04,4.35-0.13c0.75-0.05,1.5-0.07,2.25-0.16c0.86-0.1,1.72-0.22,2.57-0.34c0.74-0.1,1.49-0.16,2.23-0.25   c0.83-0.1,1.66-0.17,2.5-0.25c1.46-0.14,2.92-0.32,4.38-0.4c1.18-0.06,2.36-0.07,3.53-0.04c2.24,0.11,4.47,0.39,6.7,0.56   c2.38,0.18,4.74,0.45,7.11,0.73c1.15,0.13,2.28,0.32,3.42,0.55c1.23,0.24,2.47,0.48,3.69,0.77c2.37,0.57,4.7,1.27,7.03,1.97   c1.08,0.33,2.16,0.65,3.24,0.98c0.87,0.27,1.74,0.54,2.6,0.83c1.17,0.39,2.33,0.81,3.49,1.23c0.97,0.35,1.93,0.75,2.89,1.14   c1.19,0.49,2.38,0.98,3.57,1.48c2.04,0.85,4.09,1.66,6.14,2.51c1.17,0.48,2.32,0.98,3.47,1.5c1.04,0.47,2.06,0.97,3.09,1.47   c4.4,2.12,8.76,4.34,13.01,6.75c1.96,1.11,3.92,2.24,5.86,3.38c1.96,1.15,3.92,2.28,5.9,3.39c1.45,0.82,2.92,1.6,4.38,2.42   c0.73,0.41,1.48,0.8,2.2,1.24c0.75,0.45,1.49,0.9,2.23,1.35c2.85,1.82,5.7,3.66,8.63,5.35c2.88,1.66,5.79,3.28,8.66,4.94   c0.74,0.47,1.47,0.95,2.19,1.44c0.85,0.59,1.67,1.21,2.5,1.83c0.84,0.64,1.67,1.29,2.5,1.94c0.81,0.64,1.59,1.31,2.37,1.98   c0.74,0.63,1.46,1.3,2.18,1.96c0.8,0.74,1.59,1.51,2.42,2.22c0.57,0.49,1.13,0.97,1.7,1.46c0.53,0.45,1.42,1.17,1.97,1.59   l1.84,1.39c0.15,0.11,0.3,0.22,0.45,0.32c0.71,0.47,1.42,0.94,2.12,1.41c0.91,0.61,1.83,1.17,2.77,1.73   c1.69,1.01,3.38,2.02,5.06,3.04c1.85,1.24,4.33,3,6.8,4.64c4.65,3.09,6.58,3.86,8.6,5.23c0,0,5.79,3.27,6.33,3.52l0.76,0.36   c1.53,0.71,3.05,1.44,4.56,2.17l0.47,0.23c0.99,0.47,1.98,0.94,2.97,1.4l1.58,0.74c0.67,0.32,1.36,0.62,2.04,0.93   c0.78,0.35,1.56,0.69,2.32,1.06l3,1.43c0.53,0.26,1.05,0.53,1.57,0.8l0.63,0.33c1.45,0.75,2.9,1.5,4.35,2.25l1.23,0.64   c1.22,0.63,2.43,1.27,3.67,1.88l1.22,0.61c1.08,0.54,2.16,1.08,3.26,1.6l1.02,0.47c2.96,1.39,6.02,2.82,9,4.27   c2.86,1.4,5.74,2.86,8.52,4.28l2.67,1.36c0.34,0.17,0.69,0.33,1.04,0.49l1.73,0.81c0.82,0.39,1.64,0.78,2.48,1.15l4.54,2.02   c1.05,0.47,2.11,0.92,3.18,1.36l3.08,1.29c0.31,0.14,0.63,0.27,0.95,0.39l4.49,1.7c1.98,0.75,4.03,1.47,6,2.17l7.19,2.66   c1.26,0.47,2.53,0.93,3.8,1.38l1.86,0.67c0.43,0.16,0.86,0.32,1.3,0.46l6.08,1.9c0.43,0.13,0.87,0.24,1.31,0.35l4.67,1.2   c0.46,0.12,0.93,0.24,1.4,0.36l6.62,1.57c1.24,0.29,2.5,0.56,3.76,0.82l4.5,0.94c0.44,0.09,0.9,0.15,1.35,0.21l6.09,0.85   c0.23,0.03,0.47,0.07,0.71,0.09l6.67,0.48c0.46,0.03,0.94,0.04,1.41,0.05l4.82,0.1c0.55,0.01,1.11,0.01,1.72,0l4.42-0.07   c1.53-0.02,3.09-0.11,4.6-0.18l1.43-0.07c1.54-0.08,3.08-0.15,4.62-0.22l1.38-0.07c2-0.09,3.99-0.2,5.99-0.3l0.76-0.04   c0.68-0.03,1.38-0.06,2.08-0.14l6.22-0.71c0.22-0.02,0.45-0.07,0.67-0.11l4.92-0.83c0.17-0.03,0.34-0.05,0.5-0.09l5.54-1.22   c0.16-0.03,0.32-0.07,0.48-0.11l4.45-1.18c0.51-0.13,1.01-0.26,1.51-0.42l4.8-1.58c0.53-0.17,1.06-0.34,1.58-0.53l3.75-1.34   c2.02-0.73,4.03-1.47,6.04-2.22l0.71-0.26c0.54-0.2,1.08-0.39,1.61-0.61l5.27-2.12c0.75-0.3,1.5-0.64,2.24-0.98l0.49-0.22   c0.09-0.04,0.18-0.08,0.27-0.12c2.57-1.18,5.21-2.62,7.83-4.29c1.58-1,3.1-2.13,4.37-3.09l0.77-0.58c0.6-0.45,1.19-0.89,1.77-1.36   l0.38-0.31c1.5-1.2,3.05-2.44,4.54-3.68l2.75-2.29c0.58-0.48,1.14-0.98,1.71-1.48l0.69-0.61c1.39-1.22,2.88-2.58,4.68-4.29   c0.76-0.72,1.35-1.32,1.86-1.88c0.67-0.74,1.27-1.51,1.82-2.23l0.45-0.6c1.05-1.38,2.14-2.8,3.13-4.23l0.19-0.27   c0.46-0.67,0.92-1.33,1.36-2c0.59-0.9,1.18-1.81,1.76-2.72c0.89-1.4,1.78-2.9,2.73-4.58c0.21-0.37,0.39-0.74,0.57-1.11l0.24-0.49   c0.08-0.17,0.15-0.34,0.22-0.51l0.61-1.48c0.22-0.52,0.38-1.06,0.55-1.57l0.14-0.45c0.1-0.31,0.2-0.61,0.3-0.92   c0.07-0.2,0.11-0.4,0.16-0.6l0.38-1.56c0.05-0.17,0.09-0.34,0.12-0.51l0.4-2.11c0.08-0.4,0.13-0.8,0.18-1.19l0.08-0.57   c0.03-0.25,0.05-0.5,0.07-0.75l0.05-0.64c0.02-0.22,0.04-0.44,0.05-0.65l0-0.1c0.01-0.57,0.03-1.14,0-1.71l0-0.11   C585.37,473.39,585.35,472.85,585.29,472.33z M53.84,376.17c1.82-0.64,3.64-1.29,5.4-2.07c1.61-0.71,3.08-1.7,4.59-2.61   c1.5-0.91,2.99-1.82,4.5-2.71c0.8-0.47,1.67-0.84,2.52-1.22c0.79-0.35,1.59-0.7,2.4-1.03c3.46-1.41,6.85-2.98,10.3-4.42   c1.1-0.46,2.2-0.89,3.3-1.33c2.17-0.85,4.35-1.69,6.51-2.57c2.2-0.9,4.37-1.87,6.55-2.79c1.48-0.56,2.97-1.1,4.49-1.55   c1.76-0.53,3.54-1.02,5.32-1.5c1.66-0.45,3.32-0.89,5-1.22c0.91-0.18,1.83-0.36,2.75-0.52c0.8-0.15,1.6-0.25,2.41-0.36   c1.17-0.11,2.33-0.18,3.51-0.16c1.19,0.02,2.37,0.13,3.54,0.29c1.64,0.29,3.23,0.72,4.8,1.26c1.62,0.56,3.24,1.09,4.84,1.68   c1.5,0.55,2.99,1.12,4.52,1.58c0.43,0.13,0.88,0.21,1.32,0.3c0.45,0.1,0.91,0.19,1.37,0.26c1.02,0.17,2.02,0.31,3.05,0.36   c1.26,0.05,2.54-0.07,3.78-0.29c1.19-0.21,2.31-0.6,3.41-1.09c0.47-0.21,0.91-0.48,1.34-0.75c0.41-0.26,0.79-0.56,1.2-0.82   c0.83-0.53,1.71-0.96,2.62-1.33c1.64-0.57,3.34-0.94,5.06-1.22c1.82-0.3,3.64-0.56,5.46-0.79c1.79-0.23,3.58-0.51,5.37-0.74   c1.73-0.22,3.44-0.53,5.17-0.78c0.82-0.12,1.65-0.22,2.47-0.32c0.66-0.06,1.31-0.09,1.97-0.09c0.63,0.01,1.26,0.09,1.89,0.18   c0.52,0.1,1.03,0.21,1.55,0.36c0.53,0.15,1.04,0.35,1.55,0.56c1.23,0.57,2.43,1.21,3.53,1.99c1.59,1.37,2.88,3.03,4.14,4.7   c0.73,1.02,1.42,2.06,2.09,3.13c0.32,0.51,0.6,1.05,0.88,1.59c0.31,0.58,0.64,1.17,0.92,1.76c1.13,2.39,2.13,4.82,3.13,7.27   c0.28,0.72,0.55,1.45,0.8,2.19c0.29,0.87,0.58,1.74,0.87,2.61c0.29,0.84,0.59,1.67,0.89,2.51c0.3,0.87,0.6,1.75,0.94,2.61   c0.3,0.79,0.62,1.57,0.89,2.37c0.3,0.89,0.59,1.79,0.86,2.69c0.53,1.75,1.04,3.52,1.35,5.33c0.05,0.28,0.09,0.57,0.13,0.85   c0.07,0.77,0.12,1.53,0.14,2.3c0.02,0.94,0.02,1.88,0.01,2.82c-0.01,0.84,0.03,1.68,0.05,2.53c0.02,1,0.08,1.99,0.19,2.99   c0.05,0.5,0.14,0.99,0.21,1.48c-0.23-0.43-0.46-0.87-0.69-1.3c-0.37-0.7-0.77-1.38-1.17-2.07c-0.4-0.7-0.81-1.39-1.23-2.08   c-0.46-0.76-0.96-1.5-1.45-2.24c-0.43-0.65-0.87-1.3-1.29-1.96c-0.41-0.65-0.81-1.31-1.22-1.96c-0.85-1.36-1.71-2.71-2.64-4.02   c-0.49-0.69-0.94-1.4-1.45-2.08c-0.5-0.67-1.01-1.34-1.53-2c-0.88-1.12-1.78-2.22-2.75-3.26c-0.49-0.53-0.99-1.05-1.47-1.58   c-0.5-0.56-0.97-1.15-1.43-1.74c-0.45-0.61-0.89-1.24-1.35-1.85c-0.47-0.63-0.95-1.24-1.46-1.84c-0.56-0.67-1.15-1.33-1.71-2   c-0.52-0.61-1.07-1.18-1.65-1.73c-0.61-0.57-1.24-1.11-1.88-1.64c-0.65-0.54-1.35-1.03-2.01-1.56c-0.65-0.52-1.3-1.04-2-1.5   c-0.37-0.24-0.75-0.46-1.14-0.68c-0.43-0.23-0.88-0.41-1.33-0.6c-0.86-0.37-1.81-0.56-2.72-0.75c-0.57-0.12-1.15-0.18-1.73-0.19   c-0.28,0-0.57,0.02-0.85,0.03c-0.41,0.01-0.83,0.06-1.24,0.1c-1.83,0.17-3.65,0.39-5.46,0.73c-0.84,0.16-1.68,0.33-2.52,0.51   c-0.83,0.17-1.63,0.42-2.44,0.67c-0.86,0.27-1.72,0.57-2.57,0.87c-0.89,0.31-1.79,0.66-2.64,1.06c-0.71,0.33-1.39,0.7-2.08,1.07   c-0.63,0.34-1.28,0.63-1.93,0.9c-0.62,0.23-1.24,0.43-1.88,0.59c-0.72,0.17-1.44,0.3-2.17,0.4c-1.39,0.13-2.81,0.26-4.2,0.11   c-0.66-0.14-1.3-0.32-1.94-0.53c-0.63-0.21-1.23-0.49-1.84-0.76c-0.73-0.33-1.47-0.65-2.22-0.94c-0.74-0.28-1.5-0.51-2.26-0.7   c-1.53-0.39-3.07-0.74-4.6-1.14c-0.75-0.2-1.49-0.42-2.23-0.63c-0.75-0.21-1.5-0.42-2.25-0.63c-1.54-0.43-3.07-0.9-4.62-1.24   c-1.79-0.39-3.6-0.73-5.44-0.84c-0.86-0.05-1.73-0.02-2.6,0.03c-0.41,0.02-0.82,0.07-1.22,0.1c-0.55,0.05-1.11,0.1-1.66,0.18   c-0.83,0.11-1.66,0.23-2.48,0.39c-0.88,0.18-1.75,0.38-2.62,0.59c-0.08,0.02-0.16,0.04-0.24,0.06c-1.48,0.36-2.95,0.78-4.42,1.16   c-6.92,1.81-13.86,3.57-20.71,5.63c-1.7,0.51-3.38,1.07-5.05,1.65c-0.75,0.26-1.49,0.54-2.23,0.81c-0.9,0.33-1.81,0.64-2.72,0.94   c-1.63,0.55-3.27,1.04-4.91,1.56c-1.62,0.51-3.22,1.09-4.85,1.56c-0.44,0.12-0.88,0.23-1.32,0.34c-0.5,0.12-1,0.26-1.5,0.37   c-0.51,0.11-1.02,0.21-1.52,0.32c-0.24,0.05-0.49,0.07-0.73,0.1c-0.24,0.03-0.48,0.07-0.73,0.1c0.04,0,0.08-0.01,0.12-0.01   c-0.51,0.06-1.02,0.11-1.54,0.17c0.07-0.01,0.15-0.02,0.22-0.02c-0.79,0.08-1.59,0.08-2.39,0.12c-0.82,0.04-1.65,0.07-2.47,0.11   c-0.18,0.01-0.36,0.03-0.54,0.04C50.55,377.23,52.21,376.74,53.84,376.17z M218.53,424.6c-0.54-0.73-1.13-1.41-1.74-2.08   c-2.38-2.58-4.67-5.27-7.31-7.6c-0.84-0.74-1.72-1.45-2.63-2.11c-0.84-0.61-1.68-1.2-2.54-1.79c-0.84-0.58-1.69-1.15-2.54-1.71   c-0.41-0.27-0.83-0.53-1.23-0.81c-0.37-0.26-0.73-0.54-1.09-0.82c-0.63-0.54-1.23-1.11-1.82-1.69c-0.62-0.6-1.2-1.23-1.83-1.82   c-0.29-0.28-0.58-0.56-0.87-0.84c-0.3-0.3-0.58-0.61-0.89-0.9c-0.33-0.31-0.67-0.6-1.03-0.88c-0.35-0.27-0.76-0.48-1.15-0.69   c-0.34-0.18-0.7-0.33-1.06-0.5c-0.48-0.22-0.96-0.43-1.44-0.64c-0.82-0.34-1.64-0.64-2.51-0.82c-0.94-0.2-1.89-0.32-2.85-0.42   c-0.91-0.09-1.83-0.05-2.74-0.03c-1.14,0.03-2.3,0.23-3.42,0.45c-1.01,0.2-2.01,0.45-3.01,0.69c-1.06,0.25-2.12,0.51-3.18,0.76   c-1,0.24-2.02,0.41-3.04,0.56c-0.46,0.05-0.92,0.09-1.39,0.12c-0.58,0.04-1.17,0.02-1.75,0c-1.14-0.03-2.29-0.11-3.42-0.22   c-2.22-0.23-4.43-0.57-6.63-0.92c-0.92-0.15-1.84-0.32-2.75-0.52c-1.01-0.23-1.98-0.55-2.93-0.94c-1.49-0.68-2.97-1.39-4.44-2.11   c-1.67-0.82-3.38-1.57-5.1-2.27c-0.81-0.33-1.63-0.64-2.46-0.91c-0.83-0.27-1.68-0.47-2.53-0.67c-0.86-0.2-1.72-0.36-2.58-0.53   c-0.89-0.18-1.77-0.36-2.66-0.52c-0.82-0.15-1.65-0.29-2.48-0.37c-0.8-0.07-1.61-0.16-2.41-0.19c-0.84-0.03-1.7-0.1-2.54-0.08   c-0.95,0.03-1.89,0.07-2.83,0.19c-1.75,0.21-3.48,0.5-5.2,0.83c-1.54,0.29-3.09,0.53-4.64,0.73c-1.35,0.12-2.7,0.18-4.07,0.14   c-1.46-0.04-2.91-0.19-4.35-0.39c-1.39-0.2-2.79-0.4-4.19-0.55c-1.45-0.15-2.91-0.33-4.35-0.55c-1.34-0.22-2.69-0.44-4.04-0.63   c-1.16-0.16-2.32-0.33-3.48-0.51c-1.68-0.28-3.35-0.59-5.04-0.79c-1.63-0.19-3.26-0.33-4.88-0.52c-1.58-0.18-3.16-0.26-4.75-0.21   c-0.91,0.03-1.81,0.16-2.71,0.27c-0.78,0.09-1.56,0.18-2.34,0.28c-0.99,0.1-1.98,0.18-2.97,0.23c-1.11,0.05-2.22-0.03-3.31-0.17   c-1.11-0.2-2.2-0.47-3.26-0.87c-0.12-0.05-0.24-0.11-0.36-0.17c-0.31-0.15-0.6-0.35-0.88-0.55c-0.24-0.17-0.46-0.35-0.69-0.53   c-0.03-0.03-0.06-0.05-0.09-0.08c0,0-0.01,0-0.01-0.01c0,0,0,0,0.01,0.01c-1.09-0.86-2.25-1.63-3.44-2.34   c-1.36-0.81-2.86-1.32-4.39-1.71c-0.82-0.21-1.67-0.33-2.52-0.44c-0.79-0.1-1.6-0.15-2.4-0.17c-0.8-0.03-1.61-0.03-2.41-0.04   c-0.3,0-0.6,0-0.9,0c0.78-0.53,1.61-0.98,2.44-1.43c1.51-0.06,7.35-0.84,9.01-0.91c0.84-0.03,1.68-0.07,2.52-0.08   c0.87-0.01,1.74-0.03,2.61-0.1c0.97-0.09,1.94-0.2,2.91-0.31c0.18-0.02,0.37-0.07,0.55-0.1c0.28-0.05,0.56-0.11,0.84-0.16   c0.44-0.08,0.88-0.19,1.32-0.29c0.86-0.2,1.72-0.41,2.58-0.64c0.76-0.2,1.5-0.47,2.25-0.7c1.62-0.51,3.25-0.96,4.88-1.46   c1.66-0.51,3.33-1.02,4.97-1.59c1.77-0.61,3.55-1.18,5.34-1.72c1.69-0.51,3.4-0.96,5.11-1.41c3.37-0.89,6.77-1.69,10.17-2.49   c3.43-0.81,6.87-1.61,10.3-2.39c0.92-0.21,1.85-0.41,2.78-0.58c0.94-0.17,1.87-0.31,2.82-0.42c1.12-0.1,2.25-0.17,3.38-0.2   c1.07-0.02,2.13,0.05,3.19,0.18c1.56,0.28,3.1,0.65,4.63,1.07c1.51,0.42,2.99,0.92,4.49,1.35c1.52,0.44,3.04,0.9,4.58,1.28   c0.76,0.19,1.51,0.37,2.27,0.54c0.74,0.17,1.48,0.35,2.2,0.58c0.81,0.26,1.6,0.57,2.39,0.91c0.32,0.14,0.64,0.28,0.95,0.43   c0.79,0.36,1.58,0.72,2.42,0.95c0.5,0.14,1,0.26,1.51,0.36c0.9,0.17,1.79,0.2,2.7,0.16c0.98-0.05,1.96-0.15,2.94-0.26   c0.77-0.09,1.54-0.22,2.29-0.42c1.71-0.47,3.35-1.14,4.9-1.99c0.68-0.38,1.34-0.8,2.04-1.16c0.68-0.35,1.38-0.65,2.09-0.94   c1.13-0.42,2.26-0.84,3.41-1.21c1.2-0.39,2.44-0.65,3.66-0.93c1.2-0.28,2.4-0.51,3.61-0.74c0.57-0.11,1.15-0.22,1.72-0.35   c0.68-0.15,1.36-0.33,2.04-0.45c0.92-0.04,1.84,0.08,2.75,0.22c0.38,0.08,0.75,0.18,1.12,0.29c0.32,0.09,0.63,0.22,0.94,0.35   c1.01,0.48,1.97,1.06,2.93,1.64c0.5,0.3,1,0.59,1.5,0.89c0.48,0.29,0.95,0.63,1.4,0.96c0.56,0.45,1.12,0.9,1.65,1.39   c0.58,0.53,1.11,1.1,1.65,1.67c0.51,0.54,1.02,1.08,1.5,1.64c0.49,0.58,0.95,1.17,1.4,1.77c0.44,0.61,0.88,1.21,1.34,1.81   c0.52,0.68,1.08,1.31,1.65,1.95c0.57,0.64,1.15,1.27,1.69,1.95c0.51,0.63,1.02,1.26,1.51,1.9c0.29,0.39,0.58,0.78,0.87,1.16   c-0.01-0.01-0.01-0.02-0.02-0.02c0.48,0.66,0.96,1.33,1.42,2.01c0.47,0.69,0.94,1.37,1.4,2.05c0.91,1.35,1.77,2.72,2.61,4.12   c0.82,1.38,1.69,2.73,2.53,4.09c0.42,0.68,0.78,1.38,1.15,2.08c0.39,0.74,0.76,1.48,1.11,2.24c1.12,2.48,2.21,4.98,3.37,7.45   c0.61,1.29,1.18,2.59,1.73,3.9c0.27,0.66,0.52,1.32,0.8,1.98c0.1,0.23,0.19,0.46,0.29,0.7c0.12,0.3,0.23,0.62,0.35,0.92   c0.06,0.15,0.13,0.29,0.2,0.44c0.17,0.46,0.34,0.91,0.5,1.37c0.22,0.63,0.49,1.25,0.72,1.88c0.14,0.36,0.27,0.72,0.4,1.08   c0.07,0.2,0.15,0.39,0.22,0.58c0,0.01,0.01,0.02,0.01,0.03c0.01,0.04,0.03,0.08,0.04,0.11c0.01,0.03,0.02,0.05,0.03,0.08   c0,0.01,0.01,0.02,0.01,0.03c0.01,0.04,0.03,0.07,0.04,0.11c0.01,0.02,0.02,0.04,0.03,0.07c-0.01-0.02-0.02-0.04-0.02-0.06   c0.02,0.05,0.04,0.1,0.06,0.15c0.02,0.06,0.05,0.12,0.07,0.18c-0.02-0.04-0.03-0.08-0.05-0.12c0.63,1.59,1.33,3.16,2.04,4.72   C219.35,425.76,218.96,425.17,218.53,424.6z M19.97,478.92c-0.96,0.49-1.93,0.94-2.93,1.36c-1.14,0.48-2.32,0.89-3.48,1.3   c-1.83,0.66-3.66,1.27-5.53,1.81c0.78-0.77,1.51-1.57,2.22-2.41c0.78-0.92,1.53-1.89,2.19-2.9c0.37-0.57,0.7-1.15,0.99-1.76   c0.25-0.53,0.48-1.08,0.7-1.63c0.47-1.13,0.93-2.26,1.31-3.42c0.39-1.18,0.86-2.33,1.29-3.49c0.24-0.64,0.48-1.27,0.72-1.91   c0.26-0.66,0.55-1.29,0.87-1.93c0.52-1.04,1.03-2.06,1.62-3.06c1.57-2.41,3.57-4.49,5.6-6.52c0.83-0.77,1.68-1.51,2.57-2.2   c1.01-0.78,2.07-1.48,3.11-2.23c1.87-1.35,3.81-2.59,5.81-3.73c1.55-0.8,3.13-1.53,4.77-2.13c1.94-0.71,3.91-1.35,5.87-2   c0.92-0.3,1.84-0.62,2.74-0.97c1.04-0.4,2.05-0.9,3.06-1.38c0.95-0.46,1.88-0.97,2.78-1.51c0.87-0.52,1.7-1.09,2.55-1.64   c1.52-0.99,3.07-1.94,4.65-2.84c0.82-0.47,1.65-0.92,2.47-1.38c0.96-0.53,1.9-1.09,2.85-1.63c0.86-0.48,1.7-0.98,2.56-1.46   c0.92-0.52,1.84-1.04,2.75-1.59c1.58-0.97,3.15-1.97,4.77-2.87c0.92-0.48,1.85-0.93,2.78-1.37c1.03-0.49,2.09-0.91,3.15-1.33   c1.07-0.43,2.15-0.8,3.25-1.15c1.1-0.35,2.21-0.64,3.33-0.91c0.96-0.22,1.92-0.44,2.88-0.64c1.02-0.22,2.06-0.33,3.09-0.43   c1.96-0.19,3.93-0.27,5.9-0.37c1.07-0.06,2.14-0.11,3.21-0.17c-0.67,0.37-1.35,0.75-2.02,1.12c-1.91,0.97-3.85,1.86-5.83,2.68   c-0.91,0.38-1.82,0.72-2.73,1.08c-1.16,0.46-2.31,0.92-3.47,1.39c-2.13,0.86-4.24,1.8-6.34,2.75c-0.9,0.4-1.78,0.83-2.67,1.25   c-1.04,0.49-2.11,0.94-3.17,1.41c-1.94,0.86-3.83,1.82-5.73,2.77c-0.94,0.47-1.9,0.92-2.83,1.4c-1.1,0.56-2.16,1.19-3.21,1.85   c-0.89,0.57-1.8,1.12-2.68,1.7c-0.91,0.61-1.83,1.2-2.75,1.81c-0.9,0.6-1.8,1.19-2.66,1.85c-0.9,0.69-1.78,1.39-2.63,2.14   c-0.94,0.84-1.85,1.73-2.69,2.67c-0.78,0.89-1.49,1.84-2.22,2.77c-0.37,0.47-0.72,0.95-1.08,1.42c-0.36,0.48-0.67,0.99-1.02,1.48   c-0.71,0.99-1.44,1.97-2.19,2.93c-1.5,1.92-3.11,3.75-4.69,5.6c-1.5,1.75-3.13,3.36-4.79,4.95c-1.33,1.25-2.67,2.48-4.11,3.61   c-1.58,1.24-3.24,2.38-4.9,3.51c-1.64,1.11-3.29,2.19-4.96,3.25C23.39,476.88,21.7,477.94,19.97,478.92z M116.86,419.01   c-1.14,0.59-1.37,0.74-2.49,1.37c-0.48,0.28-0.95,0.57-1.43,0.85c-0.57,0.34-1.14,0.67-1.7,1.02c-1.1,0.69-2.2,1.38-3.29,2.09   c-1.15,0.76-2.27,1.58-3.41,2.36c-0.47,0.32-0.91,0.67-1.36,1.02c-0.64,0.5-1.23,1.05-1.84,1.59c-1.16,1.04-2.22,2.16-3.23,3.34   c-1.73,2.04-3.26,4.25-4.65,6.54c-1.31,2.15-2.43,4.39-3.66,6.58c-1.3,2.32-2.6,4.65-3.97,6.92c-0.99,1.58-2.02,3.13-3.03,4.69   c-0.52,0.8-1.05,1.59-1.6,2.37c-0.63,0.91-1.16,1.88-1.72,2.83c-2.06,3.49-3.91,7.1-5.94,10.61c-0.26,0.41-0.53,0.79-0.84,1.18   c-0.13,0.17-0.27,0.33-0.41,0.5c-0.3,0.36-0.64,0.69-0.97,1.02c-0.57,0.52-1.16,1.01-1.79,1.47c-0.57,0.42-1.18,0.77-1.8,1.11   c-1.31,0.68-2.65,1.29-3.98,1.93c-0.87,0.42-1.73,0.85-2.59,1.3c-0.81,0.42-1.59,0.88-2.38,1.35c-0.58,0.28-1.15,0.53-1.76,0.74   c-0.55,0.19-1.1,0.35-1.67,0.49c-0.45,0.1-0.91,0.2-1.37,0.26c-0.56,0.08-1.11,0.12-1.67,0.13c-0.42-0.03-0.83-0.07-1.25-0.15   c-0.19-0.03-0.37-0.09-0.55-0.15c-1.62-0.55-3.18-1.25-4.8-1.8c-1.02-0.35-2.07-0.65-3.11-0.94c-0.45-0.13-0.9-0.26-1.35-0.37   c-0.48-0.12-0.96-0.2-1.45-0.28c-1.78-0.3-3.6-0.39-5.4-0.45c-1.88-0.06-3.77-0.08-5.66-0.06c-2.07,0.02-4.13,0.07-6.18,0.3   c-0.21,0.02-0.42,0.05-0.63,0.08c1.38-0.78,2.72-1.63,4.08-2.45c1.76-1.07,3.5-2.18,5.21-3.33c1.76-1.18,3.52-2.36,5.21-3.64   c1.56-1.17,3-2.49,4.44-3.81c1.65-1.52,3.28-3.08,4.77-4.76c1.53-1.72,3.02-3.48,4.49-5.26c0.78-0.95,1.54-1.92,2.28-2.9   c0.68-0.91,1.29-1.86,1.97-2.77c0.7-0.93,1.43-1.85,2.16-2.76c0.71-0.89,1.49-1.71,2.3-2.5c0.95-0.87,1.95-1.69,2.99-2.47   c1.07-0.8,2.18-1.53,3.3-2.25c2.18-1.41,4.38-2.79,6.61-4.11c1.42-0.75,2.87-1.42,4.31-2.11c0.76-0.36,1.5-0.74,2.26-1.11   c0.82-0.4,1.66-0.77,2.49-1.14c0.83-0.37,1.66-0.72,2.5-1.07c0.78-0.33,1.55-0.7,2.32-1.06c1.7-0.78,3.41-1.53,5.13-2.25   c3.25-1.36,6.57-2.55,9.83-3.9c0.8-0.33,1.58-0.71,2.37-1.07c0.73-0.34,1.45-0.69,2.17-1.07c1.52-0.8,2.99-1.71,4.49-2.55   c1.69-0.89,3.43-1.67,5.18-2.43c0.25,0,0.5,0,0.75,0.01C116.39,418.13,116.97,418.94,116.86,419.01z M270.8,430.44   c0.01-0.1,0.02-0.19,0.03-0.29c-0.01,0.05-0.01,0.1-0.02,0.16c-0.01,0.1-0.02,0.19-0.03,0.29c0,0.04-0.01,0.08-0.01,0.12   c0-0.05,0.01-0.1,0.02-0.15c-0.18,1.83-0.3,3.68-0.47,5.51c-0.16,1.68-0.27,3.37-0.41,5.05c-0.15,1.79-0.3,3.57-0.38,5.36   c-0.08,1.68-0.2,3.39,0.07,5.06c0.11,0.68,0.22,1.36,0.4,2.03c0.12,0.47,0.26,0.94,0.42,1.41c-0.44-0.63-0.88-1.25-1.31-1.88   c-0.19-0.27-0.36-0.55-0.54-0.83c-0.18-0.29-0.39-0.57-0.55-0.87c-0.38-0.7-0.79-1.39-1.15-2.1c-0.69-1.36-1.36-2.73-2.01-4.1   c-0.44-1.03-0.88-2.05-1.27-3.1c-0.21-0.57-0.42-1.13-0.61-1.71c-0.09-0.29-0.19-0.58-0.28-0.87c-0.28-0.85-0.47-1.72-0.64-2.6   c-0.13-0.8-0.26-1.6-0.39-2.4c-0.13-0.85-0.22-1.7-0.32-2.56c-0.09-0.79-0.14-1.59-0.23-2.38c-0.11-0.94-0.23-1.89-0.34-2.83   c-0.21-1.77-0.44-3.53-0.62-5.3c-0.09-0.88-0.17-1.75-0.23-2.63c-0.06-0.89-0.17-1.78-0.26-2.67c-0.16-1.5-0.44-2.99-0.7-4.48   c-0.28-1.71-0.57-3.42-0.98-5.11c-0.42-1.75-0.89-3.49-1.37-5.23c-0.96-3.46-1.98-6.9-3-10.34c-0.53-1.79-1.14-3.55-1.81-5.3   c-0.68-1.78-1.48-3.52-2.33-5.22c-0.38-0.77-0.79-1.53-1.22-2.27c-0.45-0.79-0.95-1.55-1.45-2.31c-0.93-1.41-1.89-2.8-2.96-4.1   c-0.59-0.72-1.19-1.43-1.74-2.17c-0.59-0.79-1.16-1.58-1.72-2.39c-0.56-0.81-1.09-1.65-1.59-2.5c-0.27-0.47-0.54-0.93-0.81-1.4   c-0.23-0.41-0.42-0.83-0.63-1.25c-0.33-0.74-0.66-1.49-0.98-2.23c-0.35-0.81-0.65-1.63-0.94-2.46c-0.29-0.81-0.52-1.65-0.77-2.47   c-0.26-0.89-0.52-1.78-0.79-2.67c-1.01-3.43-2.06-6.85-3.14-10.25c-0.54-1.69-1.06-3.39-1.69-5.05c-0.62-1.64-1.25-3.28-1.87-4.92   c-1.25-3.32-2.35-6.7-3.51-10.05c-0.34-0.99-0.68-1.99-1.03-2.99c-0.34-1.01-0.63-2.01-0.82-3.06c-0.12-0.77-0.24-1.55-0.33-2.32   c-0.05-0.39-0.07-0.79-0.1-1.18c-0.05-0.59-0.11-1.17-0.09-1.77c0.01-0.09,0.03-0.18,0.05-0.27c0.01-0.01,0.02-0.03,0.03-0.04   c0,0,0,0,0,0c0.02-0.01,0.04-0.01,0.06-0.02c0.09-0.01,0.17,0.01,0.26,0.01c0.06,0.02,0.13,0.03,0.19,0.05   c0.52,0.21,1.59,1.04,1.64,1.17c0.17,0.39,0.31,0.78,0.49,1.17c0.39,0.85,0.8,1.69,1.19,2.53c0.32,0.72,0.61,1.46,0.93,2.18   c0.32,0.72,0.64,1.43,0.91,2.17c0.28,0.74,0.56,1.48,0.86,2.22c0.31,0.76,0.67,1.51,1.02,2.26c0.37,0.82,0.76,1.64,1.16,2.45   c0.4,0.8,0.75,1.63,1.24,2.38c0.98,1.53,1.97,3.05,2.98,4.55c0.95,1.42,1.98,2.78,2.95,4.19c0.5,0.73,1,1.45,1.49,2.19   c0.48,0.72,0.94,1.45,1.43,2.17c0.78,1.14,1.6,2.28,2.57,3.27c0.24,0.25,0.48,0.5,0.73,0.73c0.27,0.24,0.54,0.47,0.81,0.71   c0.53,0.47,1.11,0.9,1.66,1.34c0.96,0.77,1.86,1.6,2.78,2.41c0.48,0.43,0.98,0.83,1.46,1.27c0.44,0.41,0.85,0.84,1.25,1.29   c0.66,0.83,1.27,1.7,1.81,2.61c0.52,0.88,0.98,1.8,1.43,2.73c0.35,0.8,0.69,1.61,0.99,2.43c0.3,0.82,0.56,1.65,0.8,2.49   c0.47,1.69,0.91,3.39,1.27,5.1c0.19,0.87,0.37,1.74,0.54,2.62c0.17,0.9,0.34,1.8,0.61,2.68c0.27,0.86,0.58,1.7,0.93,2.53   c0.4,0.94,0.82,1.88,1.29,2.79c0.52,1.01,1.11,1.98,1.67,2.97c0.56,0.97,1.13,1.94,1.73,2.89c0.61,0.96,1.24,1.92,1.84,2.9   c0.56,0.91,1.02,1.86,1.48,2.83c0.5,1.12,0.97,2.25,1.41,3.39c0.48,1.24,0.9,2.5,1.36,3.75c0.21,0.57,0.42,1.14,0.62,1.72   c0.23,0.67,0.43,1.34,0.61,2.02c0.32,1.21,0.58,2.45,0.81,3.68c0.08,0.5,0.15,1,0.22,1.5c0.08,0.61,0.09,1.23,0.12,1.85   c0.06,1.18,0.03,2.36-0.07,3.53c-0.23,1.97-0.49,3.94-0.74,5.91c-0.14,1.06-0.28,2.12-0.38,3.19c-0.08,0.93-0.17,1.85-0.26,2.78   c-0.11,1.01-0.21,2.03-0.34,3.04C271.05,428.11,270.91,429.27,270.8,430.44z M274.45,438.92c-0.27,0.8-0.56,1.58-0.79,2.39   c-0.24,0.83-0.47,1.66-0.67,2.5c-0.38,1.62-0.67,3.25-0.84,4.91c-0.1,0.97-0.27,1.93-0.46,2.88c-0.02-0.11-0.05-0.22-0.07-0.33   c-0.12-0.85-0.21-1.71-0.2-2.58c0-0.96,0.05-1.92,0.09-2.87c0.07-1.9,0.27-3.81,0.45-5.7c0.05-0.47,0.1-0.94,0.14-1.42   c0,0.03-0.01,0.05-0.01,0.08c0.05-0.48,0.1-0.96,0.14-1.44c-0.01,0.09-0.02,0.18-0.03,0.26c0.2-1.83,0.39-3.65,0.6-5.47   c0.11-0.91,0.21-1.81,0.36-2.71c0.13-0.84,0.28-1.67,0.44-2.51c0.3-1.65,0.51-3.31,0.75-4.97c0.24-1.7,0.6-3.38,0.94-5.07   c0.18-0.9,0.33-1.8,0.49-2.71c0.17-0.96,0.3-1.92,0.39-2.89c0.09-0.91,0.08-1.82,0.07-2.73c-0.01-0.9-0.09-1.8-0.19-2.69   c-0.11-0.92-0.27-1.85-0.45-2.76c-0.16-0.84-0.34-1.68-0.54-2.51c-0.21-0.85-0.44-1.69-0.72-2.51c-0.31-0.9-0.62-1.79-0.92-2.69   c-0.54-1.59-1.06-3.19-1.65-4.76c-0.65-1.73-1.37-3.44-2.25-5.07c-0.4-0.73-0.81-1.45-1.22-2.17c-0.41-0.72-0.81-1.46-1.22-2.18   c-0.83-1.49-1.66-2.99-2.41-4.53c-0.66-1.45-1.3-2.91-1.74-4.44c-0.5-1.71-0.78-3.48-1.2-5.21c-0.44-1.8-0.91-3.59-1.41-5.38   c-0.52-1.83-1.23-3.61-2.04-5.32c-0.39-0.83-0.81-1.65-1.27-2.46c-0.43-0.76-0.92-1.49-1.43-2.2c-0.58-0.82-1.26-1.57-1.95-2.3   c-0.61-0.64-1.3-1.21-1.98-1.78c-0.62-0.52-1.22-1.06-1.84-1.59c-0.63-0.55-1.32-1.03-1.99-1.54c-0.74-0.56-1.49-1.1-2.17-1.72   c-0.52-0.48-1.01-0.98-1.47-1.51c-1.04-1.35-2-2.76-2.95-4.18c-0.96-1.43-1.95-2.83-2.95-4.23c-1.02-1.43-2-2.9-3.01-4.34   c-0.5-0.72-1.03-1.42-1.52-2.15c-0.51-0.77-1.03-1.53-1.54-2.29c-0.44-0.65-0.87-1.32-1.31-1.98c-0.48-0.72-0.92-1.45-1.34-2.2   c-0.39-0.71-0.73-1.44-1.1-2.16c-0.4-0.78-0.81-1.56-1.18-2.35c0.04,0.08,0.07,0.16,0.11,0.23c-0.31-0.67-0.64-1.33-0.97-1.99   c0.29,0.24,0.59,0.47,0.89,0.7c1.21,0.93,2.52,1.71,3.77,2.57c0.89,0.65,1.78,1.3,2.65,1.98c0.86,0.67,1.69,1.38,2.55,2.06   c0.85,0.68,1.66,1.38,2.53,2.02c0.92,0.68,1.92,1.23,2.87,1.85c1.43,1.09,2.75,2.31,3.96,3.63c0.5,0.62,0.99,1.24,1.43,1.9   c0.49,0.74,0.94,1.49,1.37,2.26c0.84,1.53,1.67,3.07,2.55,4.57c0.44,0.76,0.89,1.5,1.4,2.22c0.22,0.31,0.47,0.61,0.7,0.92   c0.33,0.43,0.67,0.86,1.03,1.26c0.57,0.66,1.16,1.31,1.81,1.9c0.67,0.61,1.35,1.2,2.03,1.79c1.95,1.67,3.95,3.29,5.88,4.98   c1.02,0.89,2.03,1.78,3,2.73c0.84,0.82,1.62,1.72,2.39,2.61c0.33,0.4,0.66,0.79,1,1.19c0.66,0.79,1.31,1.58,1.98,2.36   c0.87,1.07,1.77,2.12,2.68,3.16c0.81,0.93,1.65,1.83,2.48,2.74c0.79,0.88,1.62,1.72,2.42,2.58c0.77,0.84,1.54,1.67,2.28,2.53   c1.25,1.55,2.38,3.18,3.54,4.79c0.34,0.47,0.68,0.95,1,1.43c0.3,0.45,0.56,0.92,0.84,1.38c0.49,0.82,0.94,1.66,1.35,2.52   c0.22,0.52,0.42,1.05,0.59,1.59c0.18,0.6,0.32,1.19,0.44,1.8c0.1,0.65,0.19,1.29,0.23,1.95c0.06,0.84,0.06,1.69,0.05,2.53   c-0.03,1.56-0.09,3.13-0.23,4.68c-0.19,1.62-0.44,3.22-0.75,4.82c-0.16,0.81-0.34,1.61-0.53,2.41c-0.2,0.85-0.46,1.68-0.64,2.53   c-0.17,0.79-0.36,1.57-0.46,2.38c-0.09,0.78-0.19,1.56-0.12,2.34c0.05,0.51,0.1,1.01,0.17,1.52c0.25,1.87,0.56,3.74,0.93,5.6   c0.12,0.6,0.23,1.21,0.33,1.82c0.21,1.33,0.34,2.66,0.29,4c-0.05,0.37-0.13,0.73-0.24,1.08c-0.1,0.22-0.21,0.43-0.33,0.63   c-0.37,0.47-0.78,0.9-1.22,1.3c-0.73,0.57-1.52,1.03-2.33,1.48c-0.77,0.43-1.53,0.86-2.28,1.33c-1.49,0.92-2.88,2.09-3.99,3.45   c-1.08,1.34-1.83,2.9-2.52,4.46C275.46,435.54,275.01,437.26,274.45,438.92z"></path>
	<path class="st0" d="M337.07,308.07c-1.6-0.71-2.89-1.85-3.87-3.42c-0.98-1.57-1.47-3.3-1.47-5.2v-48.5c0-1.9,0.49-3.65,1.47-5.25   c0.98-1.6,2.27-2.76,3.87-3.47v-0.44h-18.14v0.44c1.6,0.71,2.89,1.87,3.87,3.47c0.98,1.6,1.47,3.35,1.47,5.25v48.5   c0,1.9-0.49,3.63-1.47,5.2c-0.98,1.57-2.27,2.71-3.87,3.42v0.44h18.14V308.07z"></path>
	<path class="st0" d="M360.54,249.7c-2.79,3.62-4.18,7.65-4.18,12.09c0,0.12,0.01,0.31,0.04,0.58c0.03,0.27,0.04,0.46,0.04,0.58   c0,0.65,0.03,1.16,0.09,1.51c0.41,3.91,1.96,7.32,4.62,10.23c2.02,2.25,4.21,4.12,6.58,5.6c0.59,0.36,1.36,0.77,2.31,1.24   c5.93,2.96,11.86,5.31,17.78,7.02c0.65,0.18,2.37,0.68,5.16,1.51c6.11,1.84,9.6,2.93,10.49,3.29c4.74,1.72,8.77,4,12.09,6.85   c0.89,0.77,1.84,1.87,2.85,3.29c1.48,2.02,2.34,4.24,2.58,6.67c0.06,0.3,0.09,0.71,0.09,1.24c0,0.06,0.01,0.18,0.04,0.36   c0.03,0.18,0.04,0.33,0.04,0.44c0,3.5-1.22,6.79-3.65,9.87c-2.07,2.61-4.95,4.8-8.62,6.58c-2.79,1.42-5.63,2.34-8.54,2.76   c-0.71,0.12-1.66,0.24-2.85,0.36c-0.18,0-0.39,0.03-0.62,0.09c-0.24,0.06-0.44,0.09-0.62,0.09h-1.07c-0.06,0-0.15,0.01-0.27,0.04   c-0.12,0.03-0.21,0.04-0.27,0.04c-0.77,0.06-1.9,0.09-3.38,0.09c-2.79,0-5.36-0.09-7.74-0.27c-4.8-0.3-9.28-1.45-13.43-3.47   c-0.12-0.06-0.27-0.12-0.44-0.18l-0.18-0.18c-2.9-1.6-5.04-3.08-6.4-4.45c-2.43-2.43-4.68-5.04-6.76-7.82h-1.24v10.4   c4.5,3.02,9.4,5.42,14.67,7.2c5.28,1.78,12.45,2.67,21.52,2.67c7.29,0,13.63-1.16,19.03-3.47c5.45-2.25,9.78-5.39,12.98-9.42   c3.08-3.85,4.62-8.06,4.62-12.63c0-0.12-0.01-0.3-0.04-0.53c-0.03-0.24-0.04-0.41-0.04-0.53c0-0.77-0.03-1.33-0.09-1.69   c-0.41-4.03-2.02-7.5-4.8-10.4c-3.38-3.68-7.38-6.55-12-8.62c-2.02-0.83-3.14-1.3-3.38-1.42c-3.85-1.48-8.86-3.2-15.03-5.16   c-5.39-1.66-10.08-3.29-14.05-4.89c-2.07-0.83-3.97-1.81-5.69-2.93c-0.59-0.3-0.95-0.5-1.07-0.62c-1.48-1.01-2.37-1.66-2.67-1.96   c-0.06-0.06-0.15-0.13-0.27-0.22c-0.12-0.09-0.21-0.16-0.27-0.22c-2.13-1.78-3.56-3.79-4.27-6.05c-0.41-1.07-0.65-2.1-0.71-3.11   c0-0.12-0.01-0.3-0.04-0.53c-0.03-0.24-0.04-0.41-0.04-0.53c0-0.06-0.01-0.21-0.04-0.44c-0.03-0.24-0.04-0.39-0.04-0.44   c0-3.26,1.04-6.19,3.11-8.8v-0.09l0.09-0.09c0.12-0.18,0.34-0.44,0.67-0.8c0.33-0.36,0.55-0.59,0.67-0.71   c0.12-0.12,0.47-0.41,1.07-0.89c4.5-3.62,9.81-5.66,15.92-6.14c2.02-0.12,3.56-0.18,4.62-0.18h0.09c6.05,0,11.62,1.13,16.72,3.38   c0.12,0.06,0.22,0.12,0.31,0.18c0.09,0.06,0.16,0.12,0.22,0.18h0.09c4.27,2.61,7.47,5.51,9.6,8.71h1.24v-10.22   c-2.07-0.95-4.53-1.87-7.38-2.76c-1.78-0.53-4.06-1.13-6.85-1.78c-5.04-1.13-9.72-1.69-14.05-1.69c-6.34,0-12.09,1.01-17.25,3.02   C367.12,243.53,363.21,246.26,360.54,249.7z"></path>
	<path class="st0" d="M465.1,331.77c-1.96-0.77-3.68-1.96-5.16-3.56c-1.48-1.6-2.22-3.29-2.22-5.07V251.3l41.88,71.66l0.44,0.71   l2.04,3.65l2.05-3.38l0.09-0.27l2.76-4.62l40.1-68.55v72.64c0,1.9-0.55,3.63-1.64,5.2c-1.1,1.57-2.53,2.71-4.31,3.42v0.44h19.47   v-0.44c-1.78-0.71-3.22-1.85-4.31-3.42c-1.1-1.57-1.64-3.3-1.64-5.2v-41.61v-30.59c0-1.9,0.55-3.65,1.64-5.25   c1.1-1.6,2.53-2.76,4.31-3.47v-0.44h-12.27l-0.98,0.44l-1.16,1.87l-42.06,71.66l-42.23-72.11l-0.53-0.98l-0.44-0.89h-14.76v0.44   c1.96,0.77,3.69,1.97,5.2,3.6s2.27,3.33,2.27,5.11v72.2c0,1.78-0.76,3.47-2.27,5.07c-1.51,1.6-3.25,2.79-5.2,3.56v0.44h18.94   V331.77z"></path>
	<path class="st0" d="M578.64,242.23c1.6,0.71,2.89,1.87,3.87,3.47c0.98,1.6,1.47,3.35,1.47,5.25v48.5c0,1.9-0.49,3.63-1.47,5.2   c-0.98,1.57-2.27,2.71-3.87,3.42v0.44h18.14v-0.44c-1.6-0.71-2.89-1.85-3.87-3.42c-0.98-1.57-1.47-3.3-1.47-5.2v-48.5   c0-1.9,0.49-3.65,1.47-5.25c0.98-1.6,2.27-2.76,3.87-3.47v-0.44h-18.14V242.23z"></path>
	<path class="st0" d="M183.51,157.24c1.14,1.72,2.63,3.16,4.45,4.34c1.84,1.17,3.78,1.92,5.8,2.23c2.03,0.32,4.05,0.23,6.04-0.25   c1.99-0.49,3.86-1.35,5.6-2.57c1.73-1.23,3.21-2.78,4.43-4.68c1.02-1.6,1.75-3.25,2.18-4.93c0.43-1.68,0.6-3.25,0.51-4.7   l-4.53-0.42c0.12,1.16,0.01,2.37-0.32,3.63c-0.34,1.27-0.88,2.49-1.63,3.65c-0.88,1.38-1.93,2.5-3.14,3.36   c-1.22,0.86-2.52,1.45-3.91,1.78c-1.38,0.33-2.78,0.38-4.2,0.14c-1.41-0.23-2.76-0.77-4.05-1.6c-1.29-0.82-2.33-1.83-3.14-3.01   c-0.81-1.19-1.36-2.48-1.64-3.87c-0.28-1.4-0.28-2.83-0.01-4.3c0.28-1.46,0.86-2.88,1.74-4.26c0.75-1.17,1.63-2.16,2.64-3   c1-0.83,2.06-1.44,3.17-1.81l-2.27-3.94c-1.41,0.53-2.77,1.35-4.12,2.47c-1.35,1.12-2.51,2.45-3.51,4.01   c-1.22,1.91-2.02,3.9-2.4,5.99c-0.39,2.07-0.39,4.12,0.01,6.14C181.61,153.66,182.37,155.53,183.51,157.24z"></path>
	<path class="st0" d="M229.43,128.94l-3.83-7.44l8.16-9.05l7.78,3.05l3.44-3.81l-30.3-11.22l-2.96,3.28l14.29,28.98L229.43,128.94z    M217.95,106.41l11.62,4.44l-5.99,6.64L217.95,106.41z"></path>
	<path class="st0" d="M265.35,93.62l-7.36-9.21l1.65-1.32l14.39,3.59l4.72-3.77l-15.4-3.46c0.98-1.18,1.63-2.42,1.98-3.72   c0.33-1.29,0.36-2.6,0.05-3.9c-0.3-1.31-0.93-2.58-1.91-3.79c-1.15-1.44-2.46-2.42-3.93-2.94c-1.46-0.53-3-0.6-4.6-0.23   c-1.59,0.38-3.17,1.19-4.75,2.45l-7.31,5.83l18.74,23.45L265.35,93.62z M255.49,81.28L249,73.16l2.48-1.99   c1.58-1.25,3.08-1.88,4.52-1.86c1.43,0.02,2.66,0.66,3.67,1.93c0.68,0.85,1.07,1.74,1.16,2.67c0.08,0.93-0.11,1.85-0.59,2.77   c-0.47,0.93-1.23,1.79-2.26,2.61L255.49,81.28z"></path>
	<polygon class="st0" points="311.18,62.8 309.1,59.17 299.24,64.84 294.87,57.24 304.34,51.79 302.26,48.16 292.78,53.62    288.44,46.08 298.3,40.41 296.21,36.78 282.22,44.83 297.2,70.84  "></polygon>
	<path class="st0" d="M419.78,30.63c2.13-0.17,4.08-0.69,5.85-1.59c1.77-0.91,3.29-2.08,4.55-3.55c1.27-1.46,2.21-3.14,2.84-5.01   c0.61-1.88,0.84-3.86,0.68-5.97c-0.16-2.1-0.69-4.04-1.6-5.79c-0.91-1.76-2.1-3.27-3.59-4.52c-1.48-1.25-3.16-2.19-5.05-2.81   c-1.88-0.62-3.89-0.84-6.02-0.67l-7.69,0.6l2.34,29.92L419.78,30.63z M417.27,4.99c1.49-0.12,2.91,0.05,4.22,0.49   c1.32,0.45,2.49,1.11,3.52,2.01c1.03,0.9,1.85,1.97,2.49,3.23c0.64,1.26,1.01,2.65,1.12,4.18c0.12,1.52-0.04,2.95-0.46,4.29   c-0.43,1.34-1.08,2.54-1.95,3.59c-0.87,1.05-1.93,1.89-3.17,2.52c-1.24,0.64-2.6,1.02-4.09,1.13l-2.43,0.19l-1.68-21.44   L417.27,4.99z"></path>
	
		<rect x="447.2" y="12.74" transform="matrix(0.0619 -0.9981 0.9981 0.0619 418.5208 475.5124)" class="st0" width="30.01" height="4.77"></rect>
	<path class="st0" d="M492.44,29.63c1.03,1.67,2.33,3.07,3.92,4.21c1.58,1.13,3.39,1.91,5.4,2.34c1.69,0.36,3.4,0.42,5.13,0.19   c1.72-0.23,3.33-0.74,4.85-1.53c1.52-0.8,2.81-1.86,3.88-3.22c1.07-1.36,1.81-2.98,2.2-4.86l0.79-3.79l-13.6-2.85l-0.77,3.65   l8.85,1.85l-0.14,0.64c-0.23,1.1-0.68,2.07-1.35,2.88c-0.66,0.82-1.47,1.47-2.42,1.97c-0.95,0.5-1.96,0.82-3.06,0.97   c-1.1,0.15-2.2,0.11-3.28-0.12c-1.35-0.28-2.53-0.81-3.58-1.6c-1.04-0.78-1.89-1.77-2.57-2.96c-0.67-1.18-1.11-2.5-1.31-3.97   c-0.2-1.47-0.13-3.01,0.21-4.64c0.32-1.5,0.83-2.87,1.54-4.09c0.71-1.22,1.58-2.24,2.63-3.07s2.23-1.4,3.55-1.7   c1.33-0.31,2.77-0.29,4.33,0.03c1.6,0.34,3.11,0.97,4.53,1.9c1.42,0.94,2.56,2.05,3.4,3.34l3-3.13c-0.76-1.04-1.67-1.98-2.7-2.83   c-1.05-0.85-2.2-1.56-3.44-2.15c-1.26-0.59-2.57-1.03-3.95-1.32c-2.27-0.48-4.41-0.49-6.4-0.06c-1.99,0.43-3.78,1.23-5.36,2.38   c-1.57,1.14-2.9,2.56-3.96,4.25c-1.06,1.69-1.81,3.55-2.23,5.56c-0.46,2.16-0.51,4.25-0.16,6.24S491.41,27.97,492.44,29.63z"></path>
	<polygon class="st0" points="550.62,26.9 555.44,52.57 559.84,54.34 571.07,26.52 566.66,24.74 558.42,45.17 553.6,19.48    549.19,17.69 537.96,45.52 542.38,47.31  "></polygon>
	
		<rect x="577.58" y="52.24" transform="matrix(0.5027 -0.8644 0.8644 0.5027 247.4544 539.4253)" class="st0" width="30.02" height="4.77"></rect>
	<polygon class="st0" points="620.61,59.57 627.13,64.49 611.59,85.06 615.38,87.92 630.92,67.35 637.45,72.28 640,68.9    623.16,56.19  "></polygon>
	<polygon class="st0" points="658.42,101.97 661.8,88.43 657.81,84.33 653.25,103.69 643.77,112.93 647.1,116.34 656.57,107.1    676.05,103.05 672.04,98.93  "></polygon>
	<polygon class="st0" points="741.67,220.22 729.43,224.21 725.37,211.78 737.62,207.79 736.14,203.25 707.61,212.56 709.09,217.09    721.4,213.08 725.45,225.51 713.14,229.52 714.62,234.05 743.15,224.76  "></polygon>
	<path class="st0" d="M735.14,255.02c-2.13,0.3-4.09,0.96-5.84,2c-1.77,1.04-3.25,2.34-4.47,3.9c-1.22,1.57-2.1,3.31-2.64,5.24   c-0.53,1.92-0.66,3.93-0.37,6.01c0.29,2.08,0.96,3.96,2.01,5.67c1.05,1.7,2.37,3.14,3.98,4.31c1.6,1.17,3.39,2.01,5.37,2.53   c1.98,0.52,4.03,0.62,6.17,0.32c2.14-0.3,4.1-0.97,5.85-2c1.75-1.04,3.24-2.33,4.45-3.9c1.22-1.57,2.1-3.31,2.64-5.24   c0.53-1.92,0.66-3.93,0.37-6c-0.29-2.08-0.96-3.97-2.01-5.68c-1.05-1.7-2.37-3.14-3.98-4.31c-1.6-1.18-3.38-2.02-5.36-2.53   C739.36,254.83,737.3,254.73,735.14,255.02z M746.75,264.7c0.7,1.12,1.15,2.39,1.35,3.8c0.19,1.41,0.11,2.76-0.26,4.04   c-0.37,1.28-0.99,2.44-1.84,3.48c-0.85,1.03-1.9,1.89-3.15,2.57c-1.26,0.69-2.66,1.14-4.22,1.35c-1.55,0.21-3.03,0.17-4.42-0.15   c-1.4-0.31-2.65-0.84-3.75-1.6c-1.1-0.76-2-1.7-2.72-2.84c-0.7-1.13-1.16-2.41-1.36-3.82c-0.19-1.4-0.11-2.75,0.26-4.02   c0.38-1.28,0.99-2.43,1.84-3.47c0.85-1.03,1.9-1.89,3.16-2.57c1.26-0.69,2.66-1.14,4.21-1.35c1.56-0.22,3.04-0.17,4.43,0.14   c1.4,0.32,2.64,0.85,3.75,1.61C745.13,262.63,746.04,263.57,746.75,264.7z"></path>
	<path class="st0" d="M725.22,310.89l-0.14,4.76l11.93,0.36l-0.14,4.58c-0.06,1.95,0.26,3.67,0.96,5.18c0.7,1.51,1.73,2.7,3.08,3.59   c1.36,0.88,2.99,1.36,4.88,1.41c1.93,0.06,3.56-0.31,4.89-1.12c1.33-0.8,2.36-1.94,3.08-3.4c0.73-1.46,1.12-3.17,1.17-5.13   l0.28-9.34L725.22,310.89z M751.16,319.61c-0.04,1.2-0.25,2.27-0.65,3.21c-0.4,0.94-0.98,1.68-1.77,2.22   c-0.78,0.54-1.76,0.8-2.93,0.76c-1.18-0.03-2.14-0.35-2.9-0.94c-0.75-0.59-1.31-1.36-1.66-2.32c-0.36-0.96-0.52-2.04-0.49-3.24   l0.1-3.18l10.4,0.31L751.16,319.61z"></path>
	<polygon class="st0" points="719.06,369.25 723.18,369.99 725.21,358.81 733.84,360.38 731.88,371.13 735.99,371.88 737.95,361.12    746.5,362.67 744.47,373.86 748.59,374.61 751.47,358.74 721.94,353.38  "></polygon>
	<path class="st0" d="M693.41,152.24c-3.34-0.1-6.53,3.25-6.63,6.59s4.15,5.44,7.48,5.54c3.34,0.1,4.91-2.57,5.01-5.91   C699.37,155.12,696.74,152.34,693.41,152.24z"></path>
	<path class="st0" d="M359.34,33.55c3.34,0.1,4.91-2.57,5.01-5.91s-2.52-6.13-5.86-6.23c-3.34-0.1-6.53,3.25-6.63,6.59   S356.01,33.45,359.34,33.55z"></path>
</g>
</svg>