<svg xmlns="http://www.w3.org/2000/svg" version="1.1" xmlns:xlink="http://www.w3.org/1999/xlink" xmlns:svgjs="http://svgjs.dev/svgjs" width="2000" height="434" viewBox="0 0 2000 434"><g transform="matrix(1,0,0,1,-1.2121212121212466,0.08458310873044184)"><svg viewBox="0 0 396 86" data-background-color="#ffffff" preserveAspectRatio="xMidYMid meet" height="434" width="2000" xmlns="http://www.w3.org/2000/svg" xmlns:xlink="http://www.w3.org/1999/xlink"><g id="tight-bounds" transform="matrix(1,0,0,1,0.2400000000000091,-0.016760708181607242)"><svg viewBox="0 0 395.52 86.0335214163632" height="86.0335214163632" width="395.52"><g><svg viewBox="0 0 543.505748433992 118.2233855375515" height="86.0335214163632" width="395.52"><g><rect width="5.721698890095931" height="118.2233855375515" x="127.2857801980952" y="0" fill="#ffffff" opacity="1" stroke-width="0" stroke="transparent" fill-opacity="1" class="rect-qz-0" data-fill-palette-color="primary" rx="1%" id="qz-0" data-palette-color="#ffffff"></rect></g><g transform="matrix(1,0,0,1,147.985748433992,0.29408802372524434)"><svg viewBox="0 0 395.52 117.635209490101" height="117.635209490101" width="395.52"><g id="textblocktransform"><svg viewBox="0 0 395.52 117.635209490101" height="117.635209490101" width="395.52" id="textblock"><g><svg viewBox="0 0 395.52 63.446810966810965" height="63.446810966810965" width="395.52"><g transform="matrix(1,0,0,1,0,0)"><svg width="395.52" viewBox="3.86 -32.03 203.01 32.57" height="63.446810966810965" data-palette-color="#ffffff"><path d="M23.02-29.52Q24.02-29.52 24.44-29.15 24.85-28.78 24.85-27.93L24.85-27.93 24.85-22.31Q24.85-21.46 24.44-21.09 24.02-20.73 23.02-20.73L23.02-20.73Q22.09-20.73 21.75-21.36L21.75-21.36Q20.58-23.58 18.46-24.74 16.33-25.9 13.62-25.9L13.62-25.9Q10.94-25.9 9.46-24.66 7.98-23.41 7.98-21.31L7.98-21.31Q7.98-20.31 8.5-19.63 9.01-18.95 9.96-18.46L9.96-18.46Q10.82-18.02 11.96-17.74 13.11-17.46 15.04-17.09L15.04-17.09Q17.14-16.67 18.37-16.39 19.6-16.11 20.8-15.63L20.8-15.63Q23.24-14.62 24.62-12.83 26-11.04 26-7.98L26-7.98Q26-5.44 24.8-3.53 23.61-1.61 21.28-0.54 18.95 0.54 15.67 0.54L15.67 0.54Q13.23 0.54 11.15-0.35 9.06-1.25 7.52-2.95L7.52-2.95 7.52-1.05Q7.52-0.2 7.1 0.17 6.69 0.54 5.69 0.54L5.69 0.54Q4.69 0.54 4.27 0.17 3.86-0.2 3.86-1.05L3.86-1.05 3.86-8.37Q3.86-9.23 4.27-9.59 4.69-9.96 5.69-9.96L5.69-9.96Q6.74-9.96 7.1-8.94L7.1-8.94Q8.11-6.1 10.29-4.59 12.48-3.08 15.67-3.08L15.67-3.08Q18.8-3.08 20.47-4.42 22.14-5.76 22.14-7.98L22.14-7.98Q22.14-9.52 21.37-10.49 20.61-11.45 19.14-12.08L19.14-12.08Q18.21-12.5 17.11-12.76 16.02-13.01 14.11-13.4L14.11-13.4Q12.11-13.79 10.75-14.14 9.4-14.48 8.25-14.99L8.25-14.99Q6.3-15.87 5.21-17.37 4.13-18.87 4.13-21.31L4.13-21.31Q4.13-23.83 5.33-25.68 6.54-27.54 8.7-28.53 10.86-29.52 13.62-29.52L13.62-29.52Q15.77-29.52 17.77-28.69 19.78-27.86 21.19-26.44L21.19-26.44 21.19-27.93Q21.19-28.78 21.61-29.15 22.02-29.52 23.02-29.52L23.02-29.52ZM41.16-29.52Q42.16-29.52 42.58-29.15 42.99-28.78 42.99-27.93L42.99-27.93 42.99-20.61 53.02-20.61Q53.85-20.61 54.21-20.23 54.56-19.85 54.56-18.95L54.56-18.95Q54.56-18.04 54.21-17.66 53.85-17.29 53.02-17.29L53.02-17.29 42.99-17.29 42.99-8.4Q42.99-5.62 43.96-4.32 44.92-3.03 47.31-3.03L47.31-3.03Q48.95-3.03 50.75-3.69 52.56-4.35 54.25-5.44L54.25-5.44Q54.59-5.69 55-5.69L55-5.69Q55.83-5.69 56.42-4.57L56.42-4.57Q56.74-3.93 56.74-3.47L56.74-3.47Q56.74-2.69 55.93-2.2L55.93-2.2Q54.03-1 51.68-0.23 49.34 0.54 47.31 0.54L47.31 0.54Q43.16 0.54 41.25-1.62 39.33-3.78 39.33-8.08L39.33-8.08 39.33-17.29 34.37-17.29Q33.54-17.29 33.19-17.66 32.83-18.04 32.83-18.95L32.83-18.95Q32.83-19.85 33.19-20.23 33.54-20.61 34.37-20.61L34.37-20.61 39.33-20.61 39.33-27.93Q39.33-28.78 39.74-29.15 40.16-29.52 41.16-29.52L41.16-29.52ZM75.17-23.1Q78.71-23.1 81.21-21.67 83.71-20.24 85.05-17.71 86.4-15.19 86.59-11.89L86.59-11.89Q86.59-11.06 86.24-10.72 85.88-10.38 85.05-10.38L85.05-10.38 67.38-10.38Q67.55-6.74 69.54-4.87 71.53-3 75.17-3L75.17-3Q77.41-3 79.61-3.58 81.81-4.15 83.47-5.1L83.47-5.1Q83.88-5.32 84.22-5.32L84.22-5.32Q85.08-5.32 85.62-4.03L85.62-4.03Q85.83-3.52 85.83-3.1L85.83-3.1Q85.83-2.12 84.76-1.59L84.76-1.59Q82.88-0.63 80.32-0.05 77.75 0.54 75.17 0.54L75.17 0.54Q71.48 0.54 68.87-0.88 66.25-2.29 64.89-4.96 63.52-7.62 63.52-11.28L63.52-11.28Q63.52-14.77 65.01-17.46 66.5-20.14 69.14-21.62 71.77-23.1 75.17-23.1L75.17-23.1ZM75.17-19.56Q72.16-19.56 70.2-18.03 68.23-16.5 67.62-13.79L67.62-13.79 82.54-13.79Q82.03-16.6 80.18-18.08 78.34-19.56 75.17-19.56L75.17-19.56ZM105.56-32.03Q106.39-32.03 106.74-31.65 107.1-31.27 107.1-30.37L107.1-30.37 107.1-3.32 114.93-3.32Q115.76-3.32 116.12-2.94 116.47-2.56 116.47-1.66L116.47-1.66Q116.47-0.76 116.12-0.38 115.76 0 114.93 0L114.93 0 95.79 0Q94.96 0 94.61-0.38 94.26-0.76 94.26-1.66L94.26-1.66Q94.26-2.56 94.61-2.94 94.96-3.32 95.79-3.32L95.79-3.32 103.43-3.32 103.43-28.71 96.77-28.71Q95.94-28.71 95.59-29.09 95.23-29.47 95.23-30.37L95.23-30.37Q95.23-31.27 95.59-31.65 95.94-32.03 96.77-32.03L96.77-32.03 105.56-32.03ZM135.54-32.03Q136.37-32.03 136.72-31.65 137.07-31.27 137.07-30.37L137.07-30.37 137.07-3.32 144.91-3.32Q145.74-3.32 146.1-2.94 146.45-2.56 146.45-1.66L146.45-1.66Q146.45-0.76 146.1-0.38 145.74 0 144.91 0L144.91 0 125.77 0Q124.94 0 124.59-0.38 124.23-0.76 124.23-1.66L124.23-1.66Q124.23-2.56 124.59-2.94 124.94-3.32 125.77-3.32L125.77-3.32 133.41-3.32 133.41-28.71 126.75-28.71Q125.92-28.71 125.56-29.09 125.21-29.47 125.21-30.37L125.21-30.37Q125.21-31.27 125.56-31.65 125.92-32.03 126.75-32.03L126.75-32.03 135.54-32.03ZM164.98-23.1Q169.57-23.1 171.86-21.04 174.16-18.99 174.16-14.97L174.16-14.97 174.16-5.25Q174.16-3.32 175.77-3.32L175.77-3.32 176.62-3.32Q177.45-3.32 177.81-2.94 178.16-2.56 178.16-1.66L178.16-1.66Q178.16-0.76 177.81-0.38 177.45 0 176.62 0L176.62 0 175.06 0Q173.47 0 172.34-0.79 171.2-1.59 170.86-3.13L170.86-3.13Q168.86-1.37 166.53-0.42 164.2 0.54 161.58 0.54L161.58 0.54Q159.12 0.54 157.23-0.31 155.33-1.15 154.26-2.76 153.19-4.37 153.19-6.59L153.19-6.59Q153.19-10.45 155.94-12.29 158.7-14.14 163.07-14.14L163.07-14.14Q166.96-14.14 170.5-12.89L170.5-12.89 170.5-14.97Q170.5-17.33 169.16-18.44 167.83-19.56 164.88-19.56L164.88-19.56Q163.05-19.56 161.07-19.04 159.09-18.53 157.31-17.63L157.31-17.63Q156.9-17.41 156.55-17.41L156.55-17.41Q155.75-17.41 155.21-18.58L155.21-18.58Q154.94-19.17 154.94-19.56L154.94-19.56Q154.94-20.41 155.85-20.87L155.85-20.87Q157.9-21.95 160.25-22.52 162.61-23.1 164.98-23.1L164.98-23.1ZM163.1-10.69Q160.29-10.69 158.67-9.73 157.04-8.76 157.04-6.67L157.04-6.67Q157.04-4.88 158.28-3.89 159.51-2.91 161.73-2.91L161.73-2.91Q166.59-2.91 170.5-6.93L170.5-6.93 170.5-9.59Q168.84-10.13 166.93-10.41 165.03-10.69 163.1-10.69L163.1-10.69ZM202.33-23.1Q204.23-23.1 205.89-22.12L205.89-22.12Q206.87-21.53 206.87-20.61L206.87-20.61Q206.87-20.17 206.65-19.58L206.65-19.58Q206.14-18.19 205.23-18.19L205.23-18.19Q204.87-18.19 204.55-18.38L204.55-18.38Q203.35-19.04 201.99-19.04L201.99-19.04Q199.79-19.04 197.57-17.52 195.35-15.99 193.92-13.45 192.49-10.91 192.49-8.06L192.49-8.06 192.49-3.32 200.72-3.32Q201.55-3.32 201.9-2.94 202.26-2.56 202.26-1.66L202.26-1.66Q202.26-0.76 201.9-0.38 201.55 0 200.72 0L200.72 0 184.99 0Q184.16 0 183.81-0.38 183.46-0.76 183.46-1.66L183.46-1.66Q183.46-2.56 183.81-2.94 184.16-3.32 184.99-3.32L184.99-3.32 188.83-3.32 188.83-19.24 185.73-19.24Q184.9-19.24 184.54-19.62 184.19-20 184.19-20.9L184.19-20.9Q184.19-21.8 184.54-22.18 184.9-22.56 185.73-22.56L185.73-22.56 190.71-22.56Q191.54-22.56 191.89-22.18 192.25-21.8 192.25-20.9L192.25-20.9 192.25-15.97Q193.42-18.12 195.08-19.73 196.74-21.34 198.62-22.22 200.5-23.1 202.33-23.1L202.33-23.1Z" opacity="1" transform="matrix(1,0,0,1,0,0)" fill="#ffffff" class="wordmark-text-0" data-fill-palette-color="primary" id="text-0"></path></svg></g></svg></g><g transform="matrix(1,0,0,1,0,78.42508031261183)"><svg viewBox="0 0 134.8476557930958 39.21012917748918" height="39.21012917748918" width="134.8476557930958"><g transform="matrix(1,0,0,1,0,0)"><svg width="134.8476557930958" viewBox="4.85 -35.95 160.93 46.800000000000004" height="39.21012917748918" data-palette-color="#ffffff"><path d="M7.15 0L4.85 0 4.85-32.95 7.15-32.95 7.15-18.5 24.8-18.5 24.8-32.95 27.1-32.95 27.1 0 24.8 0 24.8-16.5 7.15-16.5 7.15 0ZM45.3 0.6L45.3 0.6Q43.15 0.6 41.2-0.25 39.25-1.1 37.77-2.7 36.3-4.3 35.42-6.63 34.55-8.95 34.55-11.95L34.55-11.95Q34.55-14.95 35.42-17.32 36.3-19.7 37.77-21.3 39.25-22.9 41.2-23.75 43.15-24.6 45.3-24.6L45.3-24.6Q47.45-24.6 49.42-23.75 51.4-22.9 52.87-21.3 54.35-19.7 55.22-17.32 56.1-14.95 56.1-11.95L56.1-11.95Q56.1-8.95 55.22-6.63 54.35-4.3 52.87-2.7 51.4-1.1 49.42-0.25 47.45 0.6 45.3 0.6ZM45.3-1.35L45.3-1.35Q47.1-1.35 48.67-2.13 50.25-2.9 51.37-4.3 52.5-5.7 53.15-7.65 53.8-9.6 53.8-11.95L53.8-11.95Q53.8-14.35 53.15-16.3 52.5-18.25 51.37-19.68 50.25-21.1 48.67-21.88 47.1-22.65 45.3-22.65L45.3-22.65Q43.5-22.65 41.95-21.88 40.4-21.1 39.27-19.68 38.15-18.25 37.5-16.3 36.85-14.35 36.85-11.95L36.85-11.95Q36.85-9.6 37.5-7.65 38.15-5.7 39.27-4.3 40.4-2.9 41.95-2.13 43.5-1.35 45.3-1.35ZM69.1 0.6L69.1 0.6Q66.4 0.6 64.15-0.38 61.9-1.35 60.3-2.7L60.3-2.7 61.6-4.35Q63.15-3.05 64.9-2.18 66.65-1.3 69.25-1.3L69.25-1.3Q72.1-1.3 73.52-2.73 74.95-4.15 74.95-6.05L74.95-6.05Q74.95-7.15 74.42-8 73.9-8.85 73.05-9.45 72.2-10.05 71.17-10.5 70.15-10.95 69.1-11.35L69.1-11.35Q67.75-11.85 66.37-12.4 65-12.95 63.9-13.73 62.8-14.5 62.12-15.58 61.45-16.65 61.45-18.2L61.45-18.2Q61.45-19.5 61.95-20.68 62.45-21.85 63.45-22.73 64.45-23.6 65.87-24.1 67.3-24.6 69.2-24.6L69.2-24.6Q71.1-24.6 72.92-23.9 74.75-23.2 76.05-22.1L76.05-22.1 74.85-20.55Q73.65-21.45 72.3-22.08 70.95-22.7 69.1-22.7L69.1-22.7Q67.7-22.7 66.7-22.33 65.7-21.95 65.02-21.35 64.35-20.75 64.02-19.95 63.7-19.15 63.7-18.35L63.7-18.35Q63.7-17.3 64.17-16.57 64.65-15.85 65.45-15.3 66.25-14.75 67.27-14.33 68.3-13.9 69.35-13.5L69.35-13.5Q70.75-12.95 72.15-12.4 73.55-11.85 74.67-11.05 75.8-10.25 76.5-9.08 77.2-7.9 77.2-6.15L77.2-6.15Q77.2-4.8 76.67-3.58 76.15-2.35 75.1-1.43 74.05-0.5 72.55 0.05 71.05 0.6 69.1 0.6ZM85.74 10.85L83.54 10.85 83.54-24 85.44-24 85.64-21 85.79-21Q87.54-22.4 89.62-23.5 91.69-24.6 93.94-24.6L93.94-24.6Q98.74-24.6 101.14-21.28 103.54-17.95 103.54-12.35L103.54-12.35Q103.54-9.3 102.69-6.9 101.84-4.5 100.37-2.83 98.89-1.15 96.97-0.28 95.04 0.6 92.94 0.6L92.94 0.6Q91.24 0.6 89.44-0.18 87.64-0.95 85.74-2.35L85.74-2.35 85.74 10.85ZM92.84-1.35L92.84-1.35Q94.64-1.35 96.19-2.15 97.74-2.95 98.84-4.4 99.94-5.85 100.57-7.88 101.19-9.9 101.19-12.35L101.19-12.35Q101.19-14.55 100.77-16.45 100.34-18.35 99.44-19.73 98.54-21.1 97.09-21.88 95.64-22.65 93.59-22.65L93.59-22.65Q91.79-22.65 89.87-21.63 87.94-20.6 85.74-18.7L85.74-18.7 85.74-4.45Q87.84-2.75 89.64-2.05 91.44-1.35 92.84-1.35ZM112.94 0L110.74 0 110.74-24 112.94-24 112.94 0ZM111.89-29.8L111.89-29.8Q111.04-29.8 110.47-30.35 109.89-30.9 109.89-31.75L109.89-31.75Q109.89-32.7 110.47-33.23 111.04-33.75 111.89-33.75L111.89-33.75Q112.74-33.75 113.32-33.23 113.89-32.7 113.89-31.75L113.89-31.75Q113.89-30.9 113.32-30.35 112.74-29.8 111.89-29.8ZM128.74 0.6L128.74 0.6Q126.99 0.6 125.84 0.08 124.69-0.45 123.99-1.4 123.29-2.35 123.01-3.7 122.74-5.05 122.74-6.65L122.74-6.65 122.74-22.1 118.99-22.1 118.99-23.8 122.79-24 123.09-30.95 124.99-30.95 124.99-24 131.94-24 131.94-22.1 124.99-22.1 124.99-6.45Q124.99-5.3 125.16-4.38 125.34-3.45 125.79-2.78 126.24-2.1 127.01-1.73 127.79-1.35 129.04-1.35L129.04-1.35Q129.74-1.35 130.56-1.58 131.39-1.8 132.04-2.1L132.04-2.1 132.64-0.3Q131.59 0.1 130.54 0.35 129.49 0.6 128.74 0.6ZM141.94 0.6L141.94 0.6Q140.49 0.6 139.24 0.2 137.99-0.2 137.04-1 136.09-1.8 135.54-3.05 134.99-4.3 134.99-6L134.99-6Q134.99-10 138.71-12.08 142.44-14.15 150.49-15.05L150.49-15.05Q150.49-16.4 150.29-17.78 150.09-19.15 149.44-20.23 148.79-21.3 147.69-21.98 146.59-22.65 144.79-22.65L144.79-22.65Q142.39-22.65 140.39-21.7 138.39-20.75 137.14-19.85L137.14-19.85 136.14-21.5Q136.79-21.95 137.71-22.5 138.64-23.05 139.79-23.5 140.94-23.95 142.29-24.28 143.64-24.6 145.09-24.6L145.09-24.6Q147.19-24.6 148.64-23.88 150.09-23.15 150.99-21.9 151.89-20.65 152.29-18.98 152.69-17.3 152.69-15.35L152.69-15.35 152.69 0 150.79 0 150.59-3.1 150.44-3.1Q148.59-1.65 146.46-0.53 144.34 0.6 141.94 0.6ZM142.34-1.3L142.34-1.3Q144.44-1.3 146.34-2.3 148.24-3.3 150.49-5.2L150.49-5.2 150.49-13.35Q146.79-12.9 144.24-12.25 141.69-11.6 140.14-10.7 138.59-9.8 137.91-8.65 137.24-7.5 137.24-6.1L137.24-6.1Q137.24-4.8 137.64-3.9 138.04-3 138.74-2.43 139.44-1.85 140.36-1.58 141.29-1.3 142.34-1.3ZM164.18 0.6L164.18 0.6Q161.23 0.6 161.23-3.2L161.23-3.2 161.23-35.95 163.43-35.95 163.43-2.9Q163.43-2.1 163.73-1.73 164.03-1.35 164.48-1.35L164.48-1.35Q164.63-1.35 164.81-1.35 164.98-1.35 165.38-1.45L165.38-1.45 165.78 0.35Q165.43 0.45 165.08 0.53 164.73 0.6 164.18 0.6Z" opacity="1" transform="matrix(1,0,0,1,0,0)" fill="#ffffff" class="slogan-text-1" data-fill-palette-color="secondary" id="text-1"></path></svg></g></svg></g></svg></g></svg></g><g transform="matrix(1,0,0,1,0,0.29408802372524434)"><svg viewBox="0 0 112.30751085229433 117.635209490101" height="117.635209490101" width="112.30751085229433"><g><svg version="1.0" xmlns="http://www.w3.org/2000/svg" xmlns:xlink="http://www.w3.org/1999/xlink" x="0" y="0" viewBox="0 0 95.471 100" enable-background="new 0 0 95.471 100" xml:space="preserve" width="112.30751085229433" height="117.635209490101" class="icon-icon-0" data-fill-palette-color="accent" id="icon-0"><path d="M47.735 0c-0.083 2.825-1.738 13.412-19.799 30.934C10.554 47.797 2.439 49.824 0 50c2.439 0.178 10.554 2.204 27.936 19.066C45.997 86.589 47.652 97.177 47.735 100c0.083-2.823 1.739-13.411 19.798-30.934C84.917 52.204 93.031 50.178 95.471 50c-2.439-0.176-10.554-2.203-27.938-19.066C49.475 13.412 47.819 2.825 47.735 0z" fill="#ffffff" data-fill-palette-color="accent"></path></svg></g></svg></g></svg></g><defs></defs></svg><rect width="395.52" height="86.0335214163632" fill="none" stroke="none" visibility="hidden"></rect></g></svg></g></svg>